<!-- Made by RANIT MANIK -->
<svg xmlns="http://www.w3.org/2000/svg" width="500" height="331" fill="none"><style><![CDATA[.B{fill:#212223}.C{fill-rule:evenodd}]]></style><path d="M438.886 204.875a15.69 15.69 0 0 1-8.866-2.751 15.74 15.74 0 0 1-6.671-10.134 15.73 15.73 0 0 1 2.452-11.888c2.38-3.506 5.986-5.872 10.149-6.671 8.58-1.639 16.919 4.006 18.558 12.601.798 4.162-.086 8.381-2.466 11.887a15.74 15.74 0 0 1-10.134 6.671 16.71 16.71 0 0 1-3.022.285zm.043-30.004c-.87 0-1.768.086-2.652.257-7.654 1.453-12.7 8.88-11.232 16.534.713 3.706 2.823 6.913 5.944 9.037a14.07 14.07 0 0 0 19.628-3.749c2.123-3.122 2.893-6.885 2.195-10.591-1.297-6.77-7.241-11.488-13.883-11.488zm-.043 34.123a19.82 19.82 0 0 1-11.189-3.463c-4.405-2.994-7.384-7.541-8.396-12.772-.998-5.245.1-10.562 3.093-14.98 3.008-4.405 7.54-7.398 12.786-8.396 5.231-.997 10.562.1 14.966 3.093 4.419 3.008 7.398 7.541 8.396 12.786 2.066 10.818-5.046 21.295-15.865 23.362-1.268.242-2.537.37-3.791.37zm.085-38.242c-1.154 0-2.309.114-3.463.327-4.79.913-8.937 3.649-11.674 7.683a18.12 18.12 0 0 0-2.837 13.669c.927 4.79 3.649 8.938 7.683 11.674 4.02 2.737 8.88 3.735 13.669 2.823 9.878-1.882 16.392-11.46 14.496-21.353-.912-4.775-3.634-8.922-7.668-11.659-3.065-2.081-6.6-3.164-10.206-3.164z" class="B C"/><path d="M426.3 209.607c-.143 0-.257-.028-.328-.043-.299-.085-1.212-.342-6.386-6.713a1.93 1.93 0 0 1-.427-1.639c.285-1.611 2.394-2.922 2.822-3.179.413-.228.941-.1 1.183.314s.1.941-.314 1.183c-.741.442-1.881 1.368-1.995 1.981-.014.086-.014.157.071.242 2.808 3.464 4.804 5.616 5.459 6.087.513-.243 1.768-1.369 2.822-2.537.328-.357.87-.385 1.226-.072a.86.86 0 0 1 .057 1.226c-2.48 2.751-3.634 3.15-4.19 3.15z" class="B"/><path d="M411.576 221.994c-.072 0-.114 0-.157-.015-1.967-.313-4.761-4.318-4.846-5.387-.043-.485-.157-1.754 13.313-14.425a.87.87 0 0 1 1.225.043.86.86 0 0 1-.042 1.225c-5.802 5.445-12.031 11.717-12.743 13.085.313.784 2.266 3.407 3.264 3.735 1.368-.585 7.583-6.842 12.914-12.715.328-.356.869-.37 1.226-.057.356.328.384.87.057 1.226-11.289 12.401-13.527 13.285-14.211 13.285zm17.147-21.395a.86.86 0 0 1-.855-.87v-21.451a.86.86 0 0 1 .855-.87c.484 0 .869.385.869.87v21.451c0 .485-.385.87-.869.87zm67.406 36.147h-67.406a.86.86 0 0 1-.855-.869v-28.365a.86.86 0 0 1 .855-.87c.484 0 .869.385.869.87v27.51h65.667v-89.87h-65.667v27.367c0 .47-.385.87-.869.87a.87.87 0 0 1-.855-.87v-28.222a.86.86 0 0 1 .855-.87h67.406a.86.86 0 0 1 .855.87v91.58a.86.86 0 0 1-.855.869zm-48.563-64.797a.88.88 0 0 1-.869-.855l-.086-4.918h-7.768l.086 3.15a.87.87 0 0 1-.841.884c-.499 0-.884-.371-.898-.841l-.1-4.034c-.014-.228.071-.456.242-.627a.83.83 0 0 1 .613-.256h9.521c.471 0 .856.37.87.84l.085 5.773a.87.87 0 0 1-.841.884zm39.839 3.749h-34.223c-.484 0-.869-.385-.869-.87a.86.86 0 0 1 .869-.855h33.354v-7.797h-34.993v6.201a.863.863 0 1 1-1.725 0v-7.07a.86.86 0 0 1 .87-.855h36.717a.86.86 0 0 1 .856.855v9.521a.86.86 0 0 1-.856.87z" class="B"/><path d="M447.224 191.391h-9.521a.86.86 0 0 1-.87-.855v-9.522c0-.484.385-.869.87-.869h9.521a.86.86 0 0 1 .855.869v9.522a.86.86 0 0 1-.855.855zm-8.652-1.725h7.783v-7.796h-7.783v7.796z" class="B C"/><path d="M453.467 191.391h-3.036a.86.86 0 0 1-.855-.855v-9.522a.86.86 0 0 1 .855-.869h1.454c.47 0 .87.385.87.869 0 .471-.4.856-.87.856h-.584v7.796h2.166c.485 0 .87.385.87.87a.86.86 0 0 1-.87.855zm33.682 0h-28.935a.862.862 0 1 1 0-1.725h28.08v-7.796h-29.377a.862.862 0 1 1 0-1.725h30.232c.484 0 .869.385.869.869v9.522a.86.86 0 0 1-.869.855zm-49.689 13.242c-.484 0-.869-.385-.869-.87v-7.055a.86.86 0 0 1 .869-.856h9.508a.86.86 0 0 1 .869.856v4.176c0 .485-.385.869-.869.869a.86.86 0 0 1-.856-.869v-3.307h-7.796v6.186a.86.86 0 0 1-.856.87zm49.446 2.466h-36.717c-.485 0-.87-.385-.87-.87v-1.782a.863.863 0 1 1 1.725 0v.927h34.993v-7.797h-29.619c-.485 0-.87-.385-.87-.869a.86.86 0 0 1 .87-.856h30.488a.86.86 0 0 1 .856.856v9.521a.86.86 0 0 1-.856.87zm-44.329-18.188a1.45 1.45 0 0 1-.285-.029c-.313-.099-1.168-.327-3.862-5.388-.228-.413-.072-.94.342-1.168.427-.228.955-.072 1.169.356.812 1.511 1.853 3.236 2.494 4.091.727-1.468 2.195-5.003 3.464-8.239.171-.442.67-.656 1.111-.484s.67.669.499 1.111c-3.549 9.094-4.133 9.451-4.418 9.607a.93.93 0 0 1-.514.143z" class="B"/><path d="M446.968 222.649h-9.508c-.484 0-.869-.384-.869-.869v-9.522a.86.86 0 0 1 .869-.855h9.508a.86.86 0 0 1 .869.855v9.522c0 .485-.385.869-.869.869zm-8.652-1.724h7.796v-7.797h-7.796v7.797zm48.59 1.724h-36.717c-.485 0-.87-.384-.87-.869v-9.522a.86.86 0 0 1 .87-.855h36.717a.86.86 0 0 1 .856.855v9.522a.86.86 0 0 1-.856.869zm-35.862-1.724h34.993v-7.797h-34.993v7.797zm-7.939-72.366h3.392c2.666 0 4.476.898 4.476 3.506 0 2.494-1.796 3.678-4.404 3.678h-1.953v4.717h-1.511v-11.901zm3.278 5.958c2.081 0 3.079-.756 3.079-2.452 0-1.725-1.055-2.281-3.15-2.281h-1.696v4.733h1.767z" class="C B"/><path d="M453.382 148.559h1.511v10.619h5.188v1.282h-6.699v-11.901z" class="B"/><path d="M464.685 148.559h1.71l4.034 11.901h-1.61l-1.127-3.62h.571v-1.212h-.955l-.556-1.824-1.198-4.005h-.071l-1.183 4.005-.57 1.824h-.955v1.212h.57l-1.14 3.62h-1.54l4.02-11.901zm2.993 8.281l-.37-1.212h-3.578l-.385 1.212h4.333z" class="B C"/><path d="M472.026 148.559h1.568l4.318 7.483 1.283 2.466h.072l-.2-3.792v-6.157h1.44v11.901h-1.554l-4.319-7.497-1.283-2.452h-.071l.185 3.721v6.228h-1.439v-11.901z" class="B"/><path d="M147.925 309.782c-9.764 0-17.717-8.167-17.717-18.216 0-10.063 7.953-18.23 17.717-18.23 9.778 0 17.717 8.167 17.717 18.23 0 10.049-7.939 18.216-17.717 18.216zm0-34.722c-8.809 0-15.993 7.398-15.993 16.506 0 9.094 7.184 16.492 15.993 16.492 8.823 0 15.993-7.398 15.993-16.492 0-9.108-7.17-16.506-15.993-16.506zm2.238 40.666a20.63 20.63 0 0 1-1.525-.057c-12.601-.798-22.108-10.59-22.108-22.792 0-12.571 9.949-22.791 22.165-22.791 12.386 0 23.247 11.032 23.247 23.604 0 6.229-2.508 12.158-6.884 16.263-3.991 3.749-9.237 5.773-14.895 5.773zm-1.468-43.916c-11.261 0-20.426 9.451-20.426 21.067 0 11.275 8.795 20.34 20.483 21.067 5.758.357 11.132-1.496 15.123-5.259 4.091-3.835 6.343-9.151 6.343-14.995 0-11.446-10.263-21.88-21.523-21.88z" class="C B"/><path d="M148.723 315.484l-.228-.015c-.47-.014-.841-.427-.827-.898.029-.484.428-.855.913-.826.37.014 9.222.242 16.292-10.377 6.955-10.434 2.437-19.969 2.38-20.055-.2-.427-.029-.955.399-1.169.428-.199.955-.028 1.155.399.213.428 5.003 10.534-2.495 21.78-7.112 10.662-16.035 11.161-17.589 11.161zm11.802-40.424a.97.97 0 0 1-.285-.043c-.442-.156-.698-.641-.542-1.097l1.098-3.293c-1.14-1.838-3.535-2.066-4.575-2.081-.556 1.255-1.212 2.623-1.583 3.008a.86.86 0 0 1-1.225 0c-.342-.328-.342-.87-.015-1.212.214-.271.927-1.753 1.454-2.979a.86.86 0 0 1 .713-.527c.214-.014 5.074-.414 6.941 3.321a.81.81 0 0 1 .057.656l-1.225 3.663c-.114.356-.456.584-.813.584z" class="B"/><path d="M164.074 273.022c-1.396 0-2.608-.456-2.679-.499-.442-.171-.67-.67-.499-1.112a.88.88 0 0 1 1.126-.499c.613.243 2.451.713 3.535.029.584-.371.926-1.055 1.012-2.095.142-1.782-2.452-3.991-6.172-5.231-3.392-1.141-6.443-1.027-7.269.285-.457.712-.542 1.425-.271 2.152a4.02 4.02 0 0 0 1.767 1.995c.328 0 .627.186.784.485.214.428.043.941-.385 1.155-1.026.513-2.551-1.126-2.722-1.312-1.511-1.682-1.753-3.649-.642-5.402 1.583-2.509 5.987-2.109 9.28-.998 3.848 1.283 7.597 3.949 7.34 7.013-.128 1.597-.741 2.751-1.81 3.421-.741.456-1.596.613-2.395.613z" class="B"/><path d="M154.838 268.974a.88.88 0 0 1-.67-.314c-2.409-2.907.071-6.727.185-6.884.257-.399.799-.513 1.198-.243.399.257.499.799.242 1.198-.029.043-1.882 2.922-.299 4.817a.85.85 0 0 1-.114 1.212c-.157.143-.357.214-.542.214zm7.512 2.637a.88.88 0 0 1-.87-.784c-.043-.471.314-.898.784-.941.1-.014 2.124-.313 3.336-3.506.171-.456.669-.684 1.111-.513.456.171.67.67.499 1.126-1.625 4.276-4.661 4.604-4.789 4.604-.019.009-.043.014-.071.014zm-5.075-3.25c-.37 0-.698-.228-.826-.599-1.183-3.549 1.325-5.801 1.439-5.901a.86.86 0 0 1 1.212.086c.313.356.285.898-.071 1.211-.086.086-1.754 1.625-.941 4.063a.86.86 0 0 1-.542 1.097c-.095.029-.185.043-.271.043zm-3.663 28.422a.91.91 0 0 1-.313-.057l-8.938-3.45c-.27-.099-.47-.342-.527-.627-.057-.256.014-.527.185-.727.442-.684 3.393-7.069 5.16-10.975.186-.442.699-.627 1.141-.428.427.2.627.713.427 1.141l-4.832 10.362 8.011 3.093c.442.171.67.67.499 1.126-.143.342-.457.542-.813.542z" class="B"/><path d="M151.374 285.009a.85.85 0 0 1-.812-.598l-.884-2.794-2.309 1.44c-.399.242-.941.128-1.183-.286-.257-.399-.128-.926.271-1.183l3.25-2.038c.228-.142.499-.157.755-.071a.85.85 0 0 1 .527.556l1.212 3.848a.86.86 0 0 1-.556 1.084c-.085.028-.176.042-.271.042zm-.199 13.199c-.385 0-.741-.256-.841-.655-.114-.457.171-.927.641-1.041l2.252-.57-.812-1.91c-.185-.442.014-.941.456-1.14a.85.85 0 0 1 1.126.456l1.226 2.851c.1.228.085.498-.029.726a.83.83 0 0 1-.556.442l-3.249.813a.78.78 0 0 1-.214.028zm.413-19.385a.86.86 0 0 1-.413-.114c-.414-.214-.585-.741-.357-1.169l.813-1.511a.86.86 0 0 1 1.169-.356c.427.214.584.741.356 1.169l-.812 1.511c-.157.299-.457.47-.756.47zm-10.562 25.885a.89.89 0 0 1-.342-.071c-.428-.171-.641-.685-.456-1.126l1.012-2.438c.185-.442.684-.641 1.126-.456.442.171.656.684.47 1.126l-1.012 2.438c-.142.327-.456.527-.798.527zm20.098-6.086c-.105 0-.209-.024-.314-.072l-2.038-.812a.84.84 0 0 1-.47-1.112c.171-.456.67-.67 1.111-.485l2.039.813c.442.171.655.684.484 1.126a.9.9 0 0 1-.812.542zm-24.574-11.175a.8.8 0 0 1-.299-.057l-2.651-1.012c-.442-.171-.656-.67-.485-1.126.171-.442.67-.656 1.112-.485l2.637 1.012c.442.171.67.67.499 1.112-.128.342-.456.556-.813.556zm50.516-11.831h-16.421a.428.428 0 1 1 0-.855h16.421a.428.428 0 1 1 0 .855zm-4.319 2.594h-11.232a.428.428 0 1 1 0-.855h11.232a.428.428 0 1 1 0 .855zm9.507 31.116H169.79c-.242 0-.442-.199-.442-.442s.2-.427.442-.427h22.464a.43.43 0 0 1 .428.427c0 .243-.2.442-.428.442zm-5.188-2.594h-16.421c-.242 0-.427-.2-.427-.442a.43.43 0 0 1 .427-.428h16.421a.43.43 0 0 1 .427.428c0 .242-.185.442-.427.442zm-3.464-3.464h-10.363a.428.428 0 1 1 0-.855h10.363c.242 0 .442.185.442.428s-.2.427-.442.427z" class="B"/><g class="C B"><path d="M186.781 215.138h-76.329a5.03 5.03 0 0 1-5.032-5.032V161.43c0-2.78 2.252-5.046 5.032-5.046h76.329c2.779 0 5.031 2.266 5.031 5.046v48.676a5.03 5.03 0 0 1-5.031 5.032zm-76.329-57.015a3.31 3.31 0 0 0-3.307 3.307v48.676a3.31 3.31 0 0 0 3.307 3.307h76.329a3.31 3.31 0 0 0 3.306-3.307V161.43a3.31 3.31 0 0 0-3.306-3.307h-76.329z"/><path d="M155.821 227.382h-14.41a.86.86 0 0 1-.855-.87v-12.23a.86.86 0 0 1 .855-.869h14.41a.86.86 0 0 1 .856.869v12.23a.86.86 0 0 1-.856.87zm-13.541-1.725h12.672v-10.519H142.28v10.519z"/><path d="M161.794 234.58h-26.355a3.9 3.9 0 0 1-3.892-3.892v-1.14a3.9 3.9 0 0 1 3.892-3.891h26.355c2.138 0 3.891 1.739 3.891 3.891v1.14c0 2.153-1.753 3.892-3.891 3.892zm-26.355-7.198c-1.183 0-2.153.969-2.153 2.166v1.14c0 1.198.97 2.167 2.153 2.167h26.355c1.183 0 2.152-.969 2.152-2.167v-1.14c0-1.197-.969-2.166-2.152-2.166h-26.355z"/></g><path d="M113.559 183.181h3.635v-11.66H114.3v-1.311c1.454-.257 2.495-.641 3.379-1.169h1.553v14.14h3.264v1.696h-8.937v-1.696z" class="B"/><path d="M125.048 176.895c0-5.302 1.91-8.153 5.06-8.153 3.164 0 5.074 2.865 5.074 8.153 0 5.317-1.91 8.281-5.074 8.281-3.15 0-5.06-2.964-5.06-8.281zm8.153 0c0-4.632-1.24-6.5-3.093-6.5-1.839 0-3.079 1.868-3.079 6.5 0 4.647 1.24 6.628 3.079 6.628 1.853 0 3.093-1.981 3.093-6.628z" class="B C"/><path d="M138.232 183.181h3.621v-11.66h-2.879v-1.311c1.439-.257 2.494-.641 3.363-1.169h1.568v14.14h3.264v1.696h-8.937v-1.696zm12.33 0h3.635v-11.66h-2.894v-1.311c1.454-.257 2.494-.641 3.378-1.169h1.554v14.14h3.264v1.696h-8.937v-1.696z" class="B"/><path d="M162.05 176.895c0-5.302 1.91-8.153 5.06-8.153 3.165 0 5.075 2.865 5.075 8.153 0 5.317-1.91 8.281-5.075 8.281-3.15 0-5.06-2.964-5.06-8.281zm8.153 0c0-4.632-1.24-6.5-3.093-6.5-1.838 0-3.078 1.868-3.078 6.5 0 4.647 1.24 6.628 3.078 6.628 1.853 0 3.093-1.981 3.093-6.628z" class="B C"/><path d="M175.235 183.181h3.62v-11.66h-2.879v-1.311c1.44-.257 2.495-.641 3.364-1.169h1.568v14.14h3.264v1.696h-8.937v-1.696z" class="B"/><path d="M112.704 194.513c0-5.303 1.91-8.154 5.074-8.154s5.075 2.851 5.075 8.154-1.91 8.267-5.075 8.267-5.074-2.965-5.074-8.267zm8.167 0c0-4.647-1.254-6.514-3.093-6.514s-3.093 1.867-3.093 6.514 1.255 6.628 3.093 6.628 3.093-1.982 3.093-6.628z" class="B C"/><path d="M125.903 200.784h3.62v-11.645h-2.879v-1.326c1.44-.242 2.48-.627 3.364-1.154h1.554v14.125h3.278v1.696h-8.937v-1.696zm12.329 0h3.621v-11.645h-2.879v-1.326c1.439-.242 2.494-.627 3.363-1.154h1.568v14.125h3.264v1.696h-8.937v-1.696z" class="B"/><use href="#B" class="B C"/><path d="M162.906 200.784h3.62v-11.645h-2.879v-1.326c1.439-.242 2.48-.627 3.364-1.154h1.553v14.125h3.279v1.696h-8.937v-1.696z" class="B"/><g class="C B"><use href="#B" x="24.673"/><path d="M181.236 209.964h-65.239c-3.207 0-5.83-2.623-5.83-5.844v-36.718a5.85 5.85 0 0 1 5.83-5.83h65.239a5.85 5.85 0 0 1 5.83 5.83v36.718c0 3.221-2.623 5.844-5.83 5.844zm-65.239-46.667c-2.267 0-4.105 1.839-4.105 4.105v36.718c0 2.266 1.838 4.105 4.105 4.105h65.239a4.11 4.11 0 0 0 4.105-4.105v-36.718a4.11 4.11 0 0 0-4.105-4.105h-65.239z"/></g><path d="M143.863 227.025a.43.43 0 0 1-.428-.427l-.214-11.874a.42.42 0 0 1 .414-.442c.242 0 .441.186.441.414l.214 11.887a.42.42 0 0 1-.413.442zm20.739 4.533h-31.971a.43.43 0 0 1-.428-.428c0-.242.185-.442.428-.442h31.971c.242 0 .427.2.427.442a.43.43 0 0 1-.427.428zm-52.71-50.116c-.129 0-.257-.057-.343-.171-.142-.2-.099-.471.086-.613l25.058-18.145c.2-.128.47-.086.613.1a.45.45 0 0 1-.1.613l-25.058 18.145a.54.54 0 0 1-.256.071zm10.376-10.363c-.142 0-.271-.057-.356-.171-.143-.199-.1-.47.1-.612l10.576-7.769c.199-.142.47-.1.613.086.142.199.1.47-.1.598l-10.576 7.783a.46.46 0 0 1-.257.085z" class="B"/><g class="C B"><path d="M479.637 54.384c-.242 0-.47-.1-.641-.271-.072-.085-7.113-7.597-15.793-12.329-.585-.314-1.383-.627-2.31-.998-3.321-1.311-8.338-3.307-13.74-9.108a18.74 18.74 0 0 1-5.032-13.897 18.77 18.77 0 0 1 6.5-13.299c7.612-6.585 19.499-5.801 26.526 1.739 3.25 3.492 5.773 9.963 7.284 13.826l.812 2.01c3.564 8.41 11.617 17.119 11.703 17.204.327.356.299.898-.043 1.226l-14.682 13.669c-.171.157-.384.228-.584.228zM460.822 1.731c-3.977 0-7.925 1.34-11.061 4.062-3.563 3.093-5.673 7.383-5.915 12.073-.257 4.704 1.368 9.194 4.575 12.643 5.132 5.516 9.935 7.412 13.114 8.666.969.385 1.824.727 2.494 1.098 7.555 4.119 13.727 10.092 15.637 12.03l13.427-12.501c-1.953-2.195-8.282-9.621-11.446-17.062-.228-.542-.499-1.24-.813-2.067-1.468-3.749-3.934-10.02-6.955-13.27-3.493-3.749-8.282-5.673-13.057-5.673z"/><path d="M487.633 59.772h-.285a7.64 7.64 0 0 1-5.359-2.452l-2.993-3.207c-.157-.171-.243-.399-.228-.627a.81.81 0 0 1 .27-.599l14.682-13.669c.356-.328.898-.299 1.226.043l2.993 3.221a7.71 7.71 0 0 1-.399 10.89l-4.661 4.333c-1.44 1.34-3.293 2.067-5.246 2.067zm-6.784-6.215l2.409 2.594a5.92 5.92 0 0 0 4.162 1.896 5.93 5.93 0 0 0 4.276-1.596l4.675-4.347a5.99 5.99 0 0 0 .299-8.452l-2.409-2.58-13.412 12.486z"/></g><path d="M482.274 56.793c-.114 0-.228-.043-.314-.143-.171-.171-.156-.442.015-.599l14.211-13.598c.171-.157.441-.157.598.014a.42.42 0 0 1-.014.613l-14.197 13.584a.43.43 0 0 1-.299.128zm2.081 1.853c-.114 0-.228-.043-.314-.143-.171-.171-.156-.442.029-.599l14.296-13.113c.186-.157.457-.142.613.029.171.185.157.456-.028.613L484.64 58.532c-.071.086-.185.114-.285.114z" class="B"/><path d="M484.469 49.88c-.242 0-.485-.114-.656-.328-8.295-10.092-17.489-17.418-23.504-20.996-1.155.584-2.266.998-3.221 1.197-3.336.684-4.319-1.083-4.59-1.867-.713-2.053.114-2.879.656-3.193 1.24-.684 3.82.071 7.169 1.91 2.637-1.482 5.516-3.891 7.441-6.614-1.226-3.72-.713-6.428.114-7.783.613-.969 1.468-1.44 2.295-1.226.413.1 1.396.527 1.539 2.423.171 2.352-.656 4.704-2.024 6.87.855 2.195 2.338 4.718 4.689 7.497 10.705 12.657 15.266 16.135 15.309 16.178.385.285.47.827.171 1.197-.285.385-.827.47-1.197.185-.2-.142-4.775-3.635-15.608-16.449-2.152-2.551-3.606-4.889-4.547-6.97-1.81 2.281-4.176 4.276-6.471 5.687 6.685 4.091 15.679 11.802 23.105 20.853.299.371.257.926-.114 1.226-.157.128-.356.2-.556.2zm-29.961-23.775c-.209 0-.38.033-.513.1-.057.043-.129.371.128 1.112.271.798 1.154 1.041 2.608.741.528-.1 1.112-.285 1.711-.542-1.782-.927-3.15-1.411-3.934-1.411zm15.223-13.47c0 .043-.371.285-.67 1.112-.371 1.055-.442 2.48-.071 4.219.712-1.468 1.097-2.979.997-4.433-.057-.613-.214-.855-.256-.898z" class="B C"/><path d="M448.293 25.578c-.128 0-.242-.043-.328-.128-1.297-1.411-6.143-10.22 2.352-18.131.185-.157.456-.157.613.029.171.171.157.442-.014.599-8.795 8.182-2.381 16.834-2.309 16.905.157.185.142.456-.029.613-.085.085-.185.114-.285.114zm30.346 24.359a.42.42 0 0 1-.299-.114c-7.754-7.141-12.7-10.077-18.159-12.486-5.602-2.48-9.393-6.514-9.564-6.685-.157-.171-.143-.456.028-.613s.442-.157.613.014c.028.043 3.834 4.076 9.265 6.485 5.545 2.452 10.562 5.416 18.401 12.657.186.157.2.428.029.613a.44.44 0 0 1-.314.128z" class="B"/><path d="M327.792 287.105h-103.04a4.87 4.87 0 0 1-4.86-4.861v-65.268a4.87 4.87 0 0 1 4.86-4.86h103.04a4.87 4.87 0 0 1 4.861 4.86v65.268a4.87 4.87 0 0 1-4.861 4.861zm-103.04-73.264c-1.724 0-3.121 1.411-3.121 3.135v65.268c0 1.725 1.397 3.136 3.121 3.136h103.04c1.725 0 3.136-1.411 3.136-3.136v-65.268c0-1.724-1.411-3.135-3.136-3.135h-103.04z" class="B C"/><path d="M331.783 229.334H220.761c-.484 0-.869-.384-.869-.869 0-.47.385-.87.869-.87h111.022c.485 0 .87.4.87.87 0 .485-.385.869-.87.869z" class="B"/><g class="C B"><path d="M321.592 250.473h-42.676a.87.87 0 0 1-.869-.856v-11.716a.87.87 0 0 1 .869-.855h42.676a.86.86 0 0 1 .855.855v11.716a.86.86 0 0 1-.855.856zm-41.806-1.725h40.937v-9.978h-40.937v9.978zm41.806 21.181h-42.676c-.47 0-.869-.385-.869-.87v-12.272c0-.47.399-.87.869-.87h42.676c.47 0 .855.4.855.87v12.272a.86.86 0 0 1-.855.87zm-41.806-1.725h40.937v-10.548h-40.937v10.548z"/><use href="#C"/><use href="#C" x="12.073"/><path d="M318.399 225.913c-2.622 0-4.761-2.123-4.761-4.746s2.139-4.746 4.761-4.746c2.609 0 4.747 2.123 4.747 4.746s-2.138 4.746-4.747 4.746zm0-7.768c-1.667 0-3.022 1.354-3.022 3.022s1.355 3.022 3.022 3.022 3.022-1.354 3.022-3.022-1.354-3.022-3.022-3.022zm-38.314-14.239h-32.256c-3.25 0-5.901-2.637-5.901-5.901v-11.517c0-3.264 2.651-5.901 5.901-5.901h32.256a5.91 5.91 0 0 1 5.916 5.901v11.517a5.91 5.91 0 0 1-5.916 5.901zm-32.256-21.595c-2.295 0-4.176 1.868-4.176 4.177v11.517c0 2.309 1.881 4.176 4.176 4.176h32.256c2.309 0 4.177-1.867 4.177-4.176v-11.517c0-2.309-1.868-4.177-4.177-4.177h-32.256z"/></g><path d="M268.711 229.334a.86.86 0 0 1-.855-.755l-3.45-25.414c-.071-.471.257-.913.741-.97.471-.071.898.257.97.742l3.449 25.414c.071.47-.257.912-.741.969-.038.01-.076.014-.114.014z" class="B"/><path d="M383.767 234.152h-23.619c-3.25 0-5.901-2.651-5.901-5.901V216.72c0-3.25 2.651-5.901 5.901-5.901h23.619c3.264 0 5.915 2.651 5.915 5.901v11.531c0 3.25-2.651 5.901-5.915 5.901zm-23.619-21.609c-2.295 0-4.176 1.882-4.176 4.177v11.531c0 2.295 1.881 4.176 4.176 4.176h23.619c2.309 0 4.176-1.881 4.176-4.176V216.72c0-2.295-1.867-4.177-4.176-4.177h-23.619zm23.619 65.667h-23.619c-3.25 0-5.901-2.637-5.901-5.901v-11.517c0-3.25 2.651-5.901 5.901-5.901h23.619c3.264 0 5.915 2.651 5.915 5.901v11.517c0 3.264-2.651 5.901-5.915 5.901zm-23.619-21.594c-2.295 0-4.176 1.867-4.176 4.176v11.517c0 2.309 1.881 4.177 4.176 4.177h23.619c2.309 0 4.176-1.868 4.176-4.177v-11.517c0-2.309-1.867-4.176-4.176-4.176h-23.619zm-17.086 65.71h-30.368c-3.059 0-5.555-2.657-5.555-5.912v-11.553c0-3.256 2.496-5.912 5.555-5.912h30.368c3.059 0 5.555 2.656 5.555 5.912v11.553c0 3.255-2.496 5.912-5.555 5.912zm-30.368-21.649c-2.174 0-3.932 1.885-3.932 4.184v11.553c0 2.299 1.758 4.184 3.932 4.184h30.368c2.173 0 3.931-1.885 3.931-4.184v-11.553c0-2.299-1.758-4.184-3.931-4.184h-30.368zm-75.812 21.606h-23.604c-3.264 0-5.915-2.651-5.915-5.901V304.85c0-3.249 2.651-5.901 5.915-5.901h23.604a5.92 5.92 0 0 1 5.916 5.901v11.532c0 3.25-2.652 5.901-5.916 5.901zm-23.604-21.609c-2.309 0-4.176 1.882-4.176 4.176v11.532c0 2.295 1.867 4.176 4.176 4.176h23.604c2.309 0 4.177-1.881 4.177-4.176V304.85c0-2.294-1.868-4.176-4.177-4.176h-23.604z" class="C B"/><path d="M327.892 300.674a.86.86 0 0 1-.541-.185l-15.979-12.957a.88.88 0 0 1-.128-1.226.86.86 0 0 1 1.211-.128l15.993 12.971c.371.299.428.841.114 1.212-.157.213-.413.313-.67.313zm3.891-61.904a.86.86 0 0 1-.755-.442.88.88 0 0 1 .342-1.183l23.333-12.856c.414-.229.941-.072 1.169.342a.88.88 0 0 1-.342 1.183l-23.333 12.842c-.129.086-.271.114-.414.114zm23.334 30.503a.95.95 0 0 1-.328-.057l-23.333-9.493a.86.86 0 0 1-.471-1.126.88.88 0 0 1 1.126-.484l23.334 9.493a.86.86 0 0 1 .47 1.126c-.143.342-.456.541-.798.541zm-129.609 30.546c-.228 0-.471-.1-.642-.299-.313-.357-.285-.898.072-1.212l13.826-12.101c.356-.314.912-.285 1.226.085a.86.86 0 0 1-.086 1.212l-13.826 12.101a.83.83 0 0 1-.57.214z" class="B"/><path d="M234.944 272.21c-.214 0-.428-.086-.585-.243l-4.76-4.518a.85.85 0 0 1-.029-1.226l15.223-16.035-4.333-4.106c-.214-.199-.314-.513-.242-.798a.86.86 0 0 1 .541-.641l21.124-7.555c.3-.114.656-.042.884.186a.83.83 0 0 1 .228.869l-6.443 21.48c-.085.286-.313.514-.612.585a.85.85 0 0 1-.813-.2l-4.319-4.105-15.237 16.036c-.157.156-.371.256-.599.271h-.028zm-3.535-5.417l3.506 3.321 15.223-16.035a.97.97 0 0 1 .613-.271c.228 0 .442.086.613.242l3.934 3.735 5.559-18.502-18.188 6.514 3.934 3.735c.171.157.257.37.271.599 0 .228-.085.456-.242.627l-15.223 16.035z" class="B C"/><path d="M324.368 304.473h1.409v8.318c0 .743-.137 1.373-.409 1.892s-.658.913-1.154 1.182-1.081.403-1.756.403c-.636 0-1.202-.115-1.698-.346s-.887-.568-1.171-1-.426-.945-.426-1.54h1.386c0 .33.082.618.245.864a1.68 1.68 0 0 0 .681.568c.288.136.616.204.983.204.406 0 .75-.085 1.035-.255s.5-.421.647-.75.228-.741.228-1.222v-8.318zm10.596 2.909c-.068-.576-.345-1.023-.829-1.341s-1.08-.477-1.785-.477c-.515 0-.965.083-1.352.25a2.14 2.14 0 0 0-.898.687 1.65 1.65 0 0 0-.318.995 1.42 1.42 0 0 0 .222.801c.151.22.345.403.579.551s.481.263.739.358l.71.222 1.182.318c.303.079.64.189 1.011.329s.733.332 1.074.574.629.546.853.921.335.835.335 1.38a3.07 3.07 0 0 1-.494 1.705c-.326.507-.804.911-1.432 1.21s-1.385.449-2.279.449c-.833 0-1.555-.135-2.164-.403s-1.084-.644-1.432-1.125-.54-1.04-.586-1.677h1.455c.038.44.186.803.443 1.091s.591.497.989.637a3.89 3.89 0 0 0 1.295.204c.538 0 1.021-.087 1.449-.261s.767-.424 1.017-.739.375-.689.375-1.113c0-.387-.108-.701-.324-.944a2.39 2.39 0 0 0-.852-.591c-.352-.151-.733-.284-1.142-.397l-1.432-.409c-.909-.262-1.629-.635-2.159-1.12s-.795-1.119-.795-1.903c0-.652.176-1.22.528-1.705s.833-.867 1.432-1.136 1.274-.409 2.017-.409c.75 0 1.417.134 2 .403a3.46 3.46 0 0 1 1.386 1.091c.345.462.527.987.546 1.574h-1.364zm29.931-84.234v-6.984h1.525v7.027c0 2.865 1.197 3.763 2.765 3.763s2.822-.898 2.822-3.763v-7.027h1.454v6.984c0 3.82-1.853 5.132-4.276 5.132-2.437 0-4.29-1.312-4.29-5.132zm11.759-6.984h1.525v11.902h-1.525v-11.902zm-14.567 50.943v-6.985h1.525v7.027c0 2.865 1.197 3.763 2.765 3.763s2.822-.898 2.822-3.763v-7.027h1.454v6.985c0 3.82-1.853 5.131-4.276 5.131-2.437 0-4.29-1.311-4.29-5.131zm13.698-1.226l-3.236-5.759h1.668l1.625 3.051.926 1.724h.071l.841-1.724 1.582-3.051h1.597l-3.236 5.83 3.464 6.072h-1.668l-1.753-3.207-1.012-1.91h-.071l-.955 1.91-1.711 3.207h-1.596l3.464-6.143zM83.356 27.759c0-3.834 2.266-6.186 5.288-6.186 1.44 0 2.58.713 3.278 1.468l-.841.998c-.627-.67-1.411-1.126-2.409-1.126-2.252 0-3.749 1.839-3.749 4.804 0 2.993 1.425 4.875 3.692 4.875 1.126 0 1.995-.499 2.751-1.34l.827.955c-.941 1.083-2.095 1.71-3.649 1.71-2.965 0-5.188-2.295-5.188-6.158zm13.341.513H93.39V27.16h3.307v-3.549h1.183v3.549h3.307v1.112H97.88v3.549h-1.183v-3.549zm9.008 0h-3.292V27.16h3.292v-3.549h1.198v3.549h3.292v1.112h-3.292v3.549h-1.198v-3.549zm121.157 274.455h1.083l-4.846 15.779h-1.083l4.846-15.779zm1.953 11.673l5.259-2.394 3.321-1.54v-.128l-3.321-1.525-5.259-2.395v-2.223l10.676 5.202v2.01l-10.676 5.203v-2.21zm-7.469 2.21l-10.676-5.203v-2.01l10.676-5.202v2.223l-5.26 2.395-3.321 1.525v.128l3.321 1.54 5.26 2.394v2.21zm3.734-36.661c-.242 0-.427-.199-.427-.442v-62.203a.427.427 0 1 1 .855 0v62.203c0 .243-.185.442-.428.442zm2.594-.869a.43.43 0 0 1-.427-.428v-30.246a.427.427 0 1 1 .855 0v30.246a.43.43 0 0 1-.428.428zm100.218 3.449h-52.696c-.242 0-.442-.185-.442-.427s.2-.428.442-.428h52.696c.243 0 .442.185.442.428a.43.43 0 0 1-.442.427z" class="B"/><path d="M457.929 288.587c-.428 0-.799-.328-.856-.77-.057-.47.286-.898.756-.955l6.443-.741 3.278-5.744c.142-.242.371-.399.656-.428l14.681-1.724c.299-.043.613.085.798.342.185.242.214.57.1.855l-2.594 6.043c-.129.285-.385.485-.699.514l-22.464 2.594c-.028.009-.061.014-.099.014zm10.904-6.97l-2.438 4.262 13.399-1.554 1.81-4.219-12.771 1.511z" class="B C"/><path d="M470.03 293.761a.87.87 0 0 1-.67-.299l-4.319-5.189c-.299-.37-.256-.912.114-1.211.371-.314.913-.257 1.212.1l4.019 4.832 12.073-1.511-2.808-4.932c-.242-.413-.099-.941.314-1.169.413-.242.941-.1 1.183.314l3.449 6.058a.86.86 0 0 1 .029.812c-.128.257-.385.428-.67.47l-13.826 1.725h-.1zm-12.101-5.616a4.75 4.75 0 0 1-4.747 4.761 4.76 4.76 0 0 1-4.761-4.761c0-2.623 2.139-4.746 4.761-4.746s4.747 2.123 4.747 4.746z" class="B"/><path d="M453.182 321.413c-18.344 0-33.268-14.923-33.268-33.268 0-18.33 14.924-33.254 33.268-33.254s33.268 14.924 33.268 33.254c0 18.345-14.923 33.268-33.268 33.268zm0-64.797c-17.389 0-31.543 14.14-31.543 31.529s14.154 31.544 31.543 31.544 31.529-14.154 31.529-31.544-14.139-31.529-31.529-31.529z" class="B C"/><path d="M453.182 314.073c-14.296 0-25.927-11.631-25.927-25.928 0-14.282 11.631-25.913 25.927-25.913 11.033 0 20.868 6.998 24.488 17.404.157.456-.085.94-.527 1.097-.456.171-.941-.071-1.098-.527-3.378-9.721-12.572-16.249-22.863-16.249-13.341 0-24.188 10.861-24.188 24.188 0 13.342 10.847 24.203 24.188 24.203 11.945 0 21.994-8.552 23.889-20.326a.859.859 0 1 1 1.697.271c-2.024 12.614-12.786 21.78-25.586 21.78zm.143-10.263c-8.624 0-15.651-7.027-15.651-15.665a15.68 15.68 0 0 1 15.651-15.65c5.986 0 11.531 3.477 14.125 8.88.214.427.029.94-.399 1.154-.428.2-.955.029-1.155-.413-2.309-4.789-7.24-7.897-12.571-7.897a13.94 13.94 0 0 0-13.926 13.926c0 7.683 6.243 13.94 13.926 13.94a13.98 13.98 0 0 0 13.655-11.118c.1-.47.556-.769 1.026-.684.456.1.755.556.67 1.026-1.482 7.241-7.939 12.501-15.351 12.501zm-.143 27.111c-.484 0-.869-.385-.869-.87v-8.638a.862.862 0 1 1 1.724 0v8.638a.86.86 0 0 1-.855.87zm0-75.175a.86.86 0 0 1-.869-.855v-8.637c0-.485.385-.87.869-.87a.86.86 0 0 1 .855.87v8.637c0 .471-.384.855-.855.855zm41.906 33.269h-8.638c-.484 0-.869-.385-.869-.87a.86.86 0 0 1 .869-.855h8.638a.863.863 0 1 1 0 1.725zm-75.174 0h-8.638c-.484 0-.869-.385-.869-.87a.86.86 0 0 1 .869-.855h8.638a.86.86 0 0 1 .87.855c0 .485-.385.87-.87.87zm48.676-2.309c-.142 0-.27-.058-.356-.172-.142-.199-.085-.47.1-.612.684-.471 2.494-3.521 3.478-5.317.114-.214.37-.285.584-.171s.285.37.171.584c-.271.485-2.665 4.861-3.734 5.616-.072.057-.157.072-.243.072zm8.781-.713c-.067 0-.129-.014-.186-.043-.213-.114-.299-.371-.199-.584l2.594-5.189c.1-.213.371-.299.584-.185.2.1.3.356.186.57l-2.594 5.188a.42.42 0 0 1-.385.243zm-6.044 0a.44.44 0 0 1-.313-.128.46.46 0 0 1 0-.613c.684-.67 2.679-4.006 3.392-5.231.114-.214.385-.286.584-.157.214.114.285.385.157.584-.1.185-2.623 4.519-3.52 5.417-.086.085-.186.128-.3.128z" class="B"/><path d="M473.921 285.993a.44.44 0 0 1-.313-.128.43.43 0 0 1 0-.613c.684-.685 3.321-4.547 4.276-5.987.128-.185.399-.242.599-.114.185.128.242.399.114.599l-4.376 6.115a.44.44 0 0 1-.3.128zm-.869 6.913c-.128 0-.242-.057-.328-.157l-4.319-5.188c-.157-.186-.128-.456.057-.599.171-.157.442-.128.599.043l4.319 5.188c.156.186.128.456-.057.613-.072.071-.171.1-.271.1zm2.166-.285c-.128 0-.256-.057-.342-.171l-3.891-4.889a.45.45 0 0 1 .071-.613c.186-.143.457-.114.613.071l3.877 4.903c.157.186.129.456-.071.599-.071.071-.171.1-.257.1zm4.747-.585a.43.43 0 0 1-.328-.156l-4.319-5.175c-.157-.185-.128-.456.043-.612.185-.157.456-.129.613.057l4.319 5.174c.157.185.128.456-.057.613-.072.071-.171.099-.271.099zm1.867-.285c-.128 0-.256-.057-.342-.171l-3.606-4.903c-.143-.185-.1-.456.1-.599a.43.43 0 0 1 .598.086l3.606 4.903c.143.185.1.456-.099.599a.4.4 0 0 1-.257.085z" class="B"/><use href="#D" class="B"/><use href="#D" y="36.29" class="B"/><path d="M443.675 288.587H425.53c-.242 0-.428-.2-.428-.442a.43.43 0 0 1 .428-.428h18.145a.43.43 0 0 1 .428.428c0 .242-.186.442-.428.442z" class="B"/><path d="M45.726 318.691c-.095 0-.195-.005-.299-.014L7.54 313.944a2.48 2.48 0 0 1-1.91-1.382c-.356-.756-.299-1.625.143-2.338l30.161-48.106c.47-.741 1.311-1.169 2.195-1.14l32.128 1.568c.827.042 1.554.484 1.981 1.183a2.5 2.5 0 0 1 .114 2.309l-24.417 51.27c-.413.855-1.269 1.383-2.209 1.383zm-38.485-7.555a.66.66 0 0 0-.043.685c.043.114.2.356.556.399l37.886 4.746a.73.73 0 0 0 .727-.399l24.417-51.271c.142-.313.028-.584-.029-.669-.057-.1-.228-.343-.584-.357l-32.128-1.568c-.257-.014-.513.114-.641.342L7.241 311.136z" class="B C"/><path d="M46.296 322.354c-7.497 0-36.603-4.347-36.931-4.404-1.91-.314-3.221-1.112-3.92-2.352-1.041-1.839-.228-3.92-.2-4.006.185-.441.684-.669 1.126-.484a.88.88 0 0 1 .485 1.126c0 .014-.542 1.411.1 2.523.428.755 1.34 1.254 2.694 1.482 6.044 1.012 34.522 4.889 37.444 4.405 2.623-3.079 24.673-49.618 25.528-52.212.684-2.038-1.497-4.276-1.511-4.29a.86.86 0 0 1 0-1.226c.342-.342.884-.342 1.212 0 .128.128 2.965 3.008 1.938 6.072-.157.471-23.96 51.998-26.355 53.195-.228.128-.784.171-1.611.171z" class="B"/><path d="M47.522 322.283c-.385 0-.741-.271-.827-.656l-.869-3.464c-.114-.456.171-.926.627-1.04s.926.157 1.055.627l.855 3.464c.114.456-.171.926-.627 1.04-.066.019-.138.029-.214.029zm13.826-50.986a.94.94 0 0 1-.385-.085c-.428-.214-.599-.727-.385-1.155.855-1.725 9.165-16.677 9.521-17.318.228-.413.755-.57 1.169-.342.428.242.57.77.342 1.183l-9.493 17.247c-.143.299-.456.47-.77.47zm-3.449 22.464c-.371 0-.698-.228-.827-.584a.88.88 0 0 1 .556-1.098l25.913-8.638c.456-.142.941.1 1.098.542.143.456-.1.955-.556 1.098l-25.913 8.637c-.095.029-.185.043-.271.043zm-19.015-21.594c-.228 0-.456-.086-.627-.271l-12.101-12.957c-.328-.356-.299-.898.043-1.226.356-.327.898-.313 1.226.043l12.087 12.957a.86.86 0 0 1-.043 1.226.82.82 0 0 1-.584.228z" class="B"/><path d="M18.986 260.479a2.91 2.91 0 0 1-1.482-.414 2.92 2.92 0 0 1-1.34-1.781l-2.409-9.422c-.185-.755-.071-1.539.328-2.209.385-.67 1.026-1.141 1.782-1.34l11.089-2.837a2.99 2.99 0 0 1 2.209.314c.67.399 1.14 1.04 1.34 1.796l2.409 9.407a2.99 2.99 0 0 1-.314 2.21 2.89 2.89 0 0 1-1.796 1.339l-11.089 2.837c-.238.066-.48.1-.727.1zm8.695-16.364a1.05 1.05 0 0 0-.299.043l-11.089 2.837a1.13 1.13 0 0 0-.727.541 1.11 1.11 0 0 0-.128.898l2.409 9.422c.071.299.271.556.542.727a1.23 1.23 0 0 0 .898.128l11.089-2.836a1.15 1.15 0 0 0 .727-.556 1.1 1.1 0 0 0 .128-.898l-2.409-9.408c-.071-.313-.271-.57-.542-.726a1.16 1.16 0 0 0-.599-.172zm70.727 49.39l-.356-.015-10.277-.755c-1.254-.1-2.409-.67-3.221-1.625a4.69 4.69 0 0 1-1.14-3.421l.656-8.837c.086-1.255.656-2.395 1.611-3.222a4.71 4.71 0 0 1 3.435-1.14l10.277.756c2.594.185 4.547 2.451 4.362 5.045l-.656 8.838c-.085 1.254-.67 2.394-1.611 3.221-.869.741-1.952 1.155-3.078 1.155zm-.228-1.739c.798.042 1.568-.2 2.166-.727.613-.514.969-1.24 1.026-2.039l.656-8.837a2.94 2.94 0 0 0-.727-2.167c-.513-.598-1.24-.969-2.038-1.026l-10.277-.755c-.798-.057-1.568.199-2.181.727-.599.513-.955 1.24-1.026 2.038l-.641 8.837c-.057.784.2 1.554.713 2.167a3.01 3.01 0 0 0 2.053 1.026l10.277.756zm-22.464-33.354a4.49 4.49 0 0 1-4.376-3.549l-1.924-8.994a4.44 4.44 0 0 1 .627-3.364 4.4 4.4 0 0 1 2.822-1.939l27.809-5.929c2.409-.499 4.789 1.04 5.302 3.449l1.91 8.994c.257 1.169.029 2.366-.613 3.378a4.5 4.5 0 0 1-2.822 1.939l-27.809 5.915c-.314.067-.623.1-.927.1zm25.884-22.136a2.9 2.9 0 0 0-.57.057l-27.809 5.915a2.76 2.76 0 0 0-1.725 1.198 2.7 2.7 0 0 0-.385 2.066l1.91 8.994c.314 1.483 1.782 2.424 3.264 2.11l27.809-5.915c.712-.157 1.325-.571 1.724-1.183.4-.628.542-1.355.385-2.067l-1.91-9.009a2.77 2.77 0 0 0-2.694-2.166z" class="C B"/><path d="M75.174 254.891a.82.82 0 0 1-.556-.214c-.371-.313-.413-.855-.1-1.211l4.347-5.074-6.557-2.196a.84.84 0 0 1-.542-1.083c.142-.456.641-.698 1.083-.556l7.782 2.594a.87.87 0 0 1 .556.599c.086.271.014.57-.171.784l-5.188 6.058a.86.86 0 0 1-.656.299zm2.594 0c-.399 0-.755-.271-.841-.67-.114-.47.185-.926.641-1.04l25.927-6.044a.84.84 0 0 1 1.026.642c.114.47-.171.926-.641 1.04l-25.913 6.044a.72.72 0 0 1-.2.028zm-53.565.855c-.214 0-.413-.071-.57-.199l-6.044-5.188a.86.86 0 0 1-.1-1.212c.314-.371.855-.413 1.226-.1l4.975 4.262 3.991-16.762c.114-.471.57-.756 1.04-.642.456.114.741.57.641 1.041l-4.319 18.145c-.071.285-.299.527-.584.613a.82.82 0 0 1-.257.042z" class="B"/><path d="M38.656 287.475c-.228 0-.456-.019-.684-.057-2.038-.356-3.421-2.238-3.079-4.205.171-.969.713-1.796 1.539-2.352a3.84 3.84 0 0 1 2.794-.57c.983.171 1.839.699 2.423 1.483a3.56 3.56 0 0 1 .67 2.736c-.314 1.739-1.881 2.965-3.663 2.965zm-.114-5.516c-.413 0-.812.114-1.154.342-.428.285-.713.713-.798 1.212-.171 1.026.584 2.009 1.682 2.209 1.112.2 2.167-.485 2.338-1.511a1.83 1.83 0 0 0-.342-1.411c-.313-.428-.798-.713-1.34-.798a1.68 1.68 0 0 0-.385-.043zm.014 9.978a1.25 1.25 0 0 1-.185-.015l-2.466-.427c-.599-.114-1.012-.684-.912-1.283l.2-1.155c-.456-.247-.87-.541-1.24-.883l-1.055.47a1.13 1.13 0 0 1-1.454-.485l-1.126-2.081c-.142-.271-.171-.584-.085-.869.1-.285.328-.528.599-.656l1.14-.499c-.019-.399.009-.793.086-1.183a5.26 5.26 0 0 1 .399-1.297l-.898-.869a1.06 1.06 0 0 1-.342-.813c0-.299.143-.598.371-.798l1.768-1.568a1.14 1.14 0 0 1 1.539.043l.927.898c.352-.133.717-.238 1.097-.314l.214-1.211a1.12 1.12 0 0 1 .442-.713c.242-.171.556-.228.855-.185l2.452.427c.599.114 1.012.685.912 1.283l-.214 1.212a7.21 7.21 0 0 1 1.183.883l1.14-.513a1.15 1.15 0 0 1 1.454.499l1.126 2.081c.143.257.171.585.071.855a1.11 1.11 0 0 1-.584.656l-1.34.585a5.62 5.62 0 0 1-.071 1.054 6.32 6.32 0 0 1-.285 1.027l.983.769a1.05 1.05 0 0 1 .413.77 1.1 1.1 0 0 1-.271.827l-1.568 1.739a1.11 1.11 0 0 1-1.525.128l-1.254-.955c-.371.161-.76.285-1.169.371l-.228 1.282c-.085.542-.556.913-1.097.913zm-1.753-2.039l1.254.214.2-1.112c.071-.456.456-.812.926-.883.513-.072.998-.228 1.44-.457.399-.199.869-.156 1.212.115l1.083.855.741-.813-.841-.655a1.1 1.1 0 0 1-.314-1.354 3.44 3.44 0 0 0 .342-1.041 4.25 4.25 0 0 0 .043-1.041 1.11 1.11 0 0 1 .641-1.111l1.098-.485-.527-.983-1.026.456c-.442.199-.955.085-1.297-.271-.385-.428-.855-.77-1.383-1.041a1.08 1.08 0 0 1-.599-1.168l.185-1.055-1.254-.214-.185 1.055c-.086.47-.47.841-.969.898a4.9 4.9 0 0 0-1.425.385 1.11 1.11 0 0 1-1.254-.214l-.812-.784-.841.741.741.713c.356.342.442.883.2 1.311a3.73 3.73 0 0 0-.428 1.212c-.071.37-.071.755-.029 1.14a1.08 1.08 0 0 1-.627 1.126l-.941.413.542.984.912-.399a1.13 1.13 0 0 1 1.283.242 4.78 4.78 0 0 0 1.454 1.026 1.11 1.11 0 0 1 .627 1.198l-.171.997zm5.302 13.142c-.219 0-.442-.024-.67-.071-2.052-.356-3.435-2.238-3.093-4.205.171-.969.727-1.796 1.554-2.352.813-.541 1.796-.741 2.78-.57s1.853.699 2.437 1.483c.584.798.827 1.767.656 2.736-.299 1.739-1.882 2.979-3.663 2.979zm-.1-5.53a2.19 2.19 0 0 0-1.155.342c-.428.285-.713.713-.798 1.211-.185 1.027.57 2.01 1.682 2.21 1.098.199 2.152-.485 2.338-1.511.086-.485-.043-.984-.356-1.397a2.03 2.03 0 0 0-1.34-.812 1.62 1.62 0 0 0-.371-.043zm.015 9.977a1.34 1.34 0 0 1-.2-.014l-2.452-.427c-.613-.114-1.026-.685-.912-1.283l.2-1.155a6.44 6.44 0 0 1-1.254-.884l-1.055.471c-.527.242-1.169.028-1.44-.485l-1.14-2.081a1.09 1.09 0 0 1-.071-.869 1.13 1.13 0 0 1 .599-.656l1.126-.499a6.14 6.14 0 0 1 .086-1.183 5.24 5.24 0 0 1 .399-1.297l-.898-.869a1.17 1.17 0 0 1-.342-.813 1.16 1.16 0 0 1 .371-.798l1.782-1.568c.428-.385 1.112-.356 1.525.043l.926.898c.361-.133.727-.238 1.098-.314l.214-1.211c.057-.286.214-.542.456-.713s.542-.228.841-.185l2.452.441c.613.1 1.026.67.912 1.269l-.214 1.212a7.23 7.23 0 0 1 1.183.883l1.14-.499c.542-.242 1.183-.028 1.454.485l1.126 2.081c.142.257.171.584.085.87a1.1 1.1 0 0 1-.599.641l-1.326.599a4.85 4.85 0 0 1-.085 1.04 4.83 4.83 0 0 1-.285 1.026l.983.77c.242.2.399.47.428.77a1.1 1.1 0 0 1-.271.827l-1.582 1.738a1.11 1.11 0 0 1-1.525.129l-1.24-.955c-.38.161-.774.285-1.183.37l-.214 1.297c-.1.528-.57.898-1.098.898zm-1.753-2.038l1.254.214.185-1.098c.086-.47.456-.826.941-.898.499-.071.983-.228 1.44-.456a1.11 1.11 0 0 1 1.197.114l1.098.856.727-.813-.841-.656c-.399-.313-.542-.883-.299-1.354.157-.328.271-.684.342-1.04a3.67 3.67 0 0 0 .029-1.041c-.043-.47.214-.912.641-1.097l1.112-.499-.542-.984-1.012.456c-.442.2-.969.086-1.297-.27-.385-.428-.855-.77-1.383-1.041a1.09 1.09 0 0 1-.613-1.169l.185-1.04-1.254-.228-.185 1.055c-.071.47-.47.841-.969.898-.485.057-.969.185-1.411.384-.428.2-.926.114-1.254-.213l-.812-.784-.841.741.741.712c.356.343.428.884.2 1.312a4.13 4.13 0 0 0-.442 1.211c-.057.385-.071.77-.014 1.141a1.1 1.1 0 0 1-.641 1.14l-.927.413.527.97.927-.399c.428-.2.941-.1 1.269.242.413.427.898.784 1.454 1.026a1.12 1.12 0 0 1 .641 1.197l-.171.998z" class="C B"/><path d="M28.949 303.268a.45.45 0 0 1-.356-.171l-9.365-13.013a.42.42 0 0 1 .699-.499l9.379 12.999c.128.2.086.47-.1.599a.46.46 0 0 1-.256.085zm9.451 14.097c-.143 0-.271-.071-.356-.185l-7.711-10.633a.43.43 0 0 1 .085-.599c.2-.142.47-.1.613.1l7.711 10.619c.142.199.1.47-.086.613a.46.46 0 0 1-.256.085zm24.302-32.669c-.114 0-.228-.043-.313-.143l-20.654-22.221c-.157-.171-.142-.442.029-.613a.43.43 0 0 1 .613.028l20.654 22.222c.157.171.143.456-.029.613a.46.46 0 0 1-.299.114zm-.057-3.892c-.114 0-.228-.042-.314-.142l-15.565-17.276a.43.43 0 0 1 .043-.612c.171-.157.442-.143.613.028l15.551 17.29c.157.171.142.442-.043.598-.071.086-.185.114-.285.114zm7.897-5.188c-.228 0-.413-.171-.428-.399l-.428-6.471c-.014-.242.157-.442.399-.471.242-.014.442.172.456.414l.428 6.471c.028.242-.157.442-.399.456-.01.01-.019.01-.028 0zm-10.178-48.519c-.385 0-.727-.257-.827-.628-.029-.071-1.896-6.642-2.822-13.127-.47-3.364.413-6.586 1.354-10.006.926-3.364 1.896-6.842 1.44-10.463-.371-2.922-.314-5.416-.271-7.412.071-3.278.014-4.561-1.012-4.889-1.625-.541-3.207 3.094-3.549 4.106-.157.441-.641.684-1.097.541a.86.86 0 0 1-.542-1.097c.214-.656 2.238-6.358 5.744-5.189 2.309.77 2.266 3.193 2.181 6.557-.043 1.953-.085 4.376.257 7.17.499 3.962-.513 7.611-1.482 11.132-.898 3.235-1.739 6.3-1.311 9.293.912 6.386 2.751 12.843 2.765 12.9.128.47-.128.94-.584 1.069a.78.78 0 0 1-.242.043z" class="B"/><path d="M56.644 196.423c-.314 0-.627-.186-.77-.485-1.183-2.366-4.618-14.225-5.645-17.817-1.539-5.402-4.561-11.275-6.941-11.745-.385-.086-.998-.072-1.767.898-.299.37-.841.427-1.226.128-.371-.285-.428-.841-.128-1.212 1.254-1.567 2.58-1.696 3.464-1.51 3.82.769 6.999 8.509 8.267 12.97 2.081 7.298 4.633 15.737 5.516 17.518.214.428.043.941-.385 1.155-.128.057-.257.1-.385.1z" class="B"/><path d="M47.351 187.115c-.314 0-.627-.171-.77-.47-.242-.485-.513-1.44-1.012-3.236-1.397-4.96-3.977-14.197-7.996-16.891-1.14-.755-2.024-.869-2.637-.328-.969.856-1.169 3.037-.755 3.878.214.427.043.94-.385 1.154s-.955.043-1.169-.385c-.755-1.539-.371-4.575 1.169-5.944.713-.627 2.281-1.439 4.732.2 4.561 3.036 7.255 12.671 8.695 17.86.385 1.368.727 2.566.898 2.922.214.427.043.941-.385 1.154a.94.94 0 0 1-.385.086z" class="B"/><path d="M33.411 190.835c-.442 0-.812-.313-.869-.755-.299-2.495-1.525-5.702-2.694-8.823-1.867-4.946-3.478-9.208-1.996-11.361.57-.826 1.497-1.24 2.765-1.24 5.573 0 7.854 9.522 9.222 15.223.271 1.141.584 2.452.741 2.751.285.342.257.841-.057 1.169-.342.328-.884.328-1.226 0-.385-.385-.584-1.154-1.14-3.521-1.083-4.504-3.335-13.897-7.54-13.897-1.012 0-1.254.371-1.34.499-.983 1.411.698 5.844 2.181 9.764 1.212 3.207 2.466 6.528 2.808 9.222.057.47-.285.912-.755.969h-.1z" class="B"/><path d="M36.661 217.874a2.32 2.32 0 0 1-1.169-.313c-2.238-1.269-3.677-6.158-5.716-15.309-.641-2.865-1.839-6.428-3.008-9.892-2.837-8.438-4.462-13.683-2.209-15.194.912-.599 1.867-.798 2.851-.599 2.052.428 3.421 2.523 3.478 2.609a.87.87 0 0 1-.257 1.197.87.87 0 0 1-1.197-.257c-.285-.442-1.269-1.625-2.38-1.853-.513-.114-1.026 0-1.539.342-1.269.856 1.24 8.282 2.893 13.214 1.183 3.492 2.395 7.112 3.05 10.048 1.083 4.889 2.908 13.071 4.889 14.183.171.1.328.128.499.057a.88.88 0 0 1 1.098.556c.157.442-.1.941-.542 1.083a2.24 2.24 0 0 1-.741.128z" class="B"/><path d="M40.837 230.817c-.413 0-.784-.314-.855-.741-.898-6.315-3.62-12.743-3.649-12.8a.87.87 0 0 1 .456-1.141.86.86 0 0 1 1.126.457c.114.27 2.851 6.685 3.777 13.227a.87.87 0 0 1-.727.984c-.038.009-.081.014-.128.014zm-13.014-20.454h-.071c-.114-.015-11.845-1.126-13.798-12.814-.584-3.55-1.668-6.785-2.623-9.622-1.696-5.102-3.05-9.136.314-10.804.869-.442 1.71-.513 2.494-.199 1.81.698 2.765 3.221 3.677 5.658.485 1.255.927 2.438 1.44 3.193.599.898 1.568 1.611 2.694 2.437 2.01 1.454 4.504 3.279 5.773 7.07a.86.86 0 0 1-.556 1.084.84.84 0 0 1-1.083-.542c-1.098-3.264-3.15-4.761-5.146-6.215-1.212-.883-2.352-1.724-3.122-2.879-.613-.912-1.098-2.195-1.611-3.549-.713-1.882-1.596-4.219-2.694-4.647-.199-.085-.542-.157-1.098.128-1.924.955-1.14 3.649.556 8.709.983 2.908 2.081 6.215 2.694 9.893 1.725 10.348 11.802 11.331 12.23 11.374a.87.87 0 0 1 .798.926.87.87 0 0 1-.869.799z" class="B"/><path d="M23.177 184.335a.87.87 0 0 1-.713-.384c-1.839-2.766-2.181-8.339-2.509-13.741-.271-4.632-.656-10.975-2.352-10.975-.157 0-.413.028-.727.37-2.338 2.452-2.323 13.327-2.124 17.319a.87.87 0 0 1-.827.897.85.85 0 0 1-.898-.812c-.086-1.554-.67-15.166 2.594-18.601.57-.584 1.254-.898 1.981-.898 3.321 0 3.677 5.844 4.077 12.6.299 4.918.641 10.505 2.224 12.871.256.399.157.941-.242 1.198a.86.86 0 0 1-.485.156z" class="B"/><path d="M28.137 171.778c-.328 0-.641-.171-.784-.485-1.155-2.366-1.354-5.673-1.539-8.58-.2-3.079-.399-6.272-1.71-6.272-1.867 0-3.193 1.14-3.934 3.407l-.057.171c-.171.441-.67.67-1.112.498s-.67-.669-.499-1.111l.029-.1c1.297-3.991 4.048-4.59 5.573-4.59 2.922 0 3.164 3.834 3.435 7.883.171 2.751.37 5.886 1.368 7.939.214.427.028.941-.399 1.154a.93.93 0 0 1-.371.086z" class="B"/><path d="M33.425 167.602c-.228 0-.456-.086-.627-.257-.627-.613-.684-1.839-.784-3.521s-.228-3.991-1.083-4.846c-.57-.584-.926-.485-1.04-.456-.599.171-1.525 1.254-2.152 3.777-.114.456-.584.741-1.055.627-.456-.114-.741-.584-.627-1.054.713-2.823 1.91-4.604 3.378-5.003.656-.186 1.653-.186 2.722.883 1.326 1.326 1.468 3.806 1.582 5.987.057.898.114 2.138.299 2.409.342.342.328.869-.014 1.211-.157.171-.385.243-.599.243zm-3.734 63.215c-.485 0-.869-.399-.869-.87 0-7.198-4.547-20.026-4.59-20.169a.85.85 0 0 1 .513-1.097c.456-.157.955.071 1.112.527.185.528 4.689 13.242 4.689 20.739a.87.87 0 0 1-.855.87zm-18.602-67.805c-.926 0-10.22-3.72-10.22-3.72l3.72-4.647 6.5 8.367zm15.808-11.146c0-.941-1.853-9.294-1.853-9.294h4.647l-2.794 9.294zm15.807 9.293l5.573-9.294 3.72 3.721-9.293 5.573zm-10.69 68.76c-.242 0-.442-.2-.442-.442 0-6.357-3.649-16.477-3.692-16.577-.071-.228.043-.47.271-.556a.41.41 0 0 1 .542.257c.157.427 3.749 10.376 3.749 16.876 0 .242-.185.442-.428.442zm-15.808-49.275a.42.42 0 0 1-.428-.428c0-.171-.029-.513-.085-1.026-.2-2.338-.684-7.797.085-13.897.029-.243.242-.414.485-.385.228.028.399.256.371.484-.755 6.015-.271 11.417-.071 13.727l.071 1.097a.42.42 0 0 1-.428.428zm9.294 25.1c-.114 0-2.993-.028-5.873-2.922-2.851-2.836-3.806-7.454-3.849-7.654-.043-.228.114-.456.342-.499a.43.43 0 0 1 .513.328c0 .057.941 4.561 3.592 7.227 2.623 2.608 5.26 2.651 5.274 2.651.242 0 .442.2.442.442-.014.228-.2.427-.442.427zm29.134-16.89h-.057c-.228-.029-.399-.242-.371-.485.057-.57.698-5.673 2.708-6.685.214-.1.47-.014.584.2.1.214.014.47-.2.57-1.354.684-2.081 4.575-2.238 6.015a.43.43 0 0 1-.428.385zm3.407 37.345c-.185 0-.356-.114-.413-.3-.014-.028-.941-2.865-1.867-7.483-.926-4.647-.941-10.263-.941-10.32a.43.43 0 0 1 .428-.427c.242 0 .442.199.442.427 0 .057 0 5.602.912 10.149.912 4.561 1.839 7.355 1.853 7.383.071.228-.057.471-.285.542-.038.019-.081.029-.128.029zM22.72 189.011c-.157 0-.314-.086-.399-.243-.1-.213-.014-.47.2-.57.014-.014 1.81-.912 2.68-1.782a.433.433 0 1 1 .613.613c-.969.97-2.822 1.896-2.908 1.939-.057.028-.119.043-.185.043z" class="B"/><path d="M23.647 189.937a.427.427 0 1 1 0-.855c.499 0 1.468-.827 1.995-1.411a.43.43 0 0 1 .613-.029c.185.157.2.428.029.613-.242.271-1.568 1.682-2.637 1.682zm.926.941c-.157 0-.314-.1-.385-.242-.114-.214-.014-.471.185-.585l1.867-.926a.43.43 0 0 1 .584.185c.1.214.014.485-.2.584l-1.853.927a.4.4 0 0 1-.2.057z" class="B"/><path d="M122.297 55.297H53.679a4.87 4.87 0 0 1-4.861-4.861V7.889a4.87 4.87 0 0 1 4.861-4.861h68.618c2.679 0 4.846 2.181 4.846 4.861v42.547c0 2.68-2.181 4.861-4.846 4.861zM53.679 4.753c-1.725 0-3.136 1.411-3.136 3.136v42.547c0 1.725 1.411 3.136 3.136 3.136h68.618c1.724 0 3.121-1.411 3.121-3.136V7.889c0-1.725-1.397-3.136-3.121-3.136H53.679z" class="B C"/><path d="M126.288 16.299h-76.6a.86.86 0 0 1-.87-.855c0-.485.385-.87.87-.87h76.6a.86.86 0 0 1 0 1.725z" class="B"/><path d="M92.45 50.123c-1.896 0-3.449-1.554-3.449-3.464s1.554-3.449 3.449-3.449c1.91 0 3.464 1.539 3.464 3.449a3.47 3.47 0 0 1-3.464 3.464zm0-5.188a1.73 1.73 0 0 0-1.725 1.725 1.73 1.73 0 0 0 1.725 1.725c.955 0 1.739-.77 1.739-1.725s-.784-1.725-1.739-1.725zm25.927-2.595c-1.91 0-3.464-1.554-3.464-3.449a3.47 3.47 0 0 1 3.464-3.464c1.91 0 3.449 1.554 3.449 3.464 0 1.896-1.539 3.449-3.449 3.449zm0-5.188c-.955 0-1.725.784-1.725 1.739a1.73 1.73 0 0 0 1.725 1.725 1.73 1.73 0 0 0 1.725-1.725c0-.955-.77-1.739-1.725-1.739z" class="C B"/><path d="M95.044 47.528a.87.87 0 0 1-.827-.613c-.143-.456.114-.941.57-1.083l20.739-6.471a.86.86 0 0 1 1.084.556c.142.456-.115.941-.571 1.083L95.3 47.486c-.086.029-.171.043-.257.043z" class="B"/><path d="M62.217 49.253a3.47 3.47 0 0 1-3.464-3.464c0-1.896 1.554-3.449 3.464-3.449 1.896 0 3.449 1.554 3.449 3.449 0 1.91-1.554 3.464-3.449 3.464zm0-5.188a1.73 1.73 0 0 0-1.725 1.725c0 .955.77 1.739 1.725 1.739s1.725-.784 1.725-1.739a1.73 1.73 0 0 0-1.725-1.725zm16.421-4.319c-1.91 0-3.464-1.554-3.464-3.449a3.47 3.47 0 0 1 3.464-3.464c1.896 0 3.449 1.554 3.449 3.464 0 1.896-1.554 3.449-3.449 3.449zm0-5.188c-.955 0-1.739.784-1.739 1.739s.784 1.725 1.739 1.725a1.73 1.73 0 0 0 1.725-1.725c0-.955-.784-1.739-1.725-1.739z" class="C B"/><path d="M64.812 44.065c-.299 0-.584-.143-.741-.413-.257-.399-.128-.927.285-1.183l11.232-6.913c.399-.257.941-.128 1.183.285.257.399.128.941-.285 1.183l-11.232 6.913a.8.8 0 0 1-.442.128zm25.058 3.463a.84.84 0 0 1-.584-.228l-8.638-7.768c-.356-.328-.385-.87-.071-1.226.328-.356.869-.385 1.226-.071l8.638 7.782c.356.314.385.87.071 1.226a.89.89 0 0 1-.641.285zM54.007 15.557c-.076 0-.147-.019-.214-.057-.2-.114-.285-.371-.171-.584l5.188-9.507c.114-.2.385-.285.584-.171a.43.43 0 0 1 .171.584l-5.174 9.507a.45.45 0 0 1-.385.228zm-2.594 0a.4.4 0 0 1-.2-.057c-.214-.1-.299-.371-.185-.57l5.188-9.949c.114-.2.371-.285.584-.171.214.1.285.371.185.584l-5.188 9.935c-.071.143-.228.228-.385.228zm.87 35.421c-.242 0-.442-.185-.442-.428V19.449c0-.242.2-.442.442-.442.228 0 .428.2.428.442V50.55a.43.43 0 0 1-.428.428zm1.724-12.957a.43.43 0 0 1-.428-.428V19.449c0-.242.185-.442.428-.442s.428.2.428.442v18.145a.43.43 0 0 1-.428.428zm67.392 12.957H77.341c-.242 0-.442-.185-.442-.428s.2-.428.442-.428h44.058a.427.427 0 0 1 0 .855zm-4.105-34.779a.41.41 0 0 1-.186-.043c-.213-.1-.299-.356-.199-.57l4.96-10.163a.43.43 0 0 1 .585-.185c.213.1.299.356.199.57l-4.974 10.149a.42.42 0 0 1-.385.242zm-1.939-.642a.5.5 0 0 1-.199-.043.43.43 0 0 1-.186-.584l5.174-10.362a.45.45 0 0 1 .585-.2c.214.114.299.371.199.584l-5.188 10.362a.42.42 0 0 1-.385.242zm4.747 0a.4.4 0 0 1-.2-.057c-.214-.1-.299-.371-.185-.57l4.761-9.08c.099-.214.37-.299.584-.185.2.114.285.371.171.584l-4.746 9.08c-.072.143-.229.228-.385.228z" class="B"/><path d="M68.332 145.409c-1.34 0-1.525-.371-1.71-.727-.841-1.711-6.999-30.133-6.999-32.356 0-.798 0-1.554 14.197-4.091-1.368-2.58-4.404-9.165-2.395-13.855 1.012-2.323 3.079-3.834 6.158-4.504 3.079-.656 5.616-.114 7.54 1.596 3.92 3.478 4.048 10.847 3.948 13.726l10.976-2.366c.456-.086.898.185 1.012.627l2.195 8.025c1.91-1.896 6.015-5.374 9.821-4.718 2.294.399 4.062 2.166 5.245 5.245 1.155 3.022 1.026 5.445-.385 7.198-2.566 3.165-8.666 3.008-11.36 2.765l3.136 11.731c.114.442-.143.913-.585 1.041l-20.354 6.015c-13.071 3.663-18.273 4.647-20.44 4.647zm-.242-1.725c2.808.427 22.179-4.903 39.739-10.334l-3.25-12.158a.86.86 0 0 1 .2-.799c.185-.228.485-.328.77-.285 2.323.371 8.851.727 11.032-1.995 1.012-1.24 1.041-3.079.128-5.474-.955-2.48-2.28-3.891-3.919-4.176-4.091-.698-9.265 5.231-9.308 5.288-.214.242-.542.356-.855.285-.3-.071-.556-.313-.642-.613l-2.366-8.723-11.303 2.423c-.271.057-.556-.014-.755-.199s-.314-.457-.285-.727c.014-.1.87-9.736-3.307-13.442-1.511-1.34-3.478-1.725-6.015-1.183s-4.148 1.682-4.932 3.492c-2.152 5.004 2.837 13.27 2.894 13.356.142.243.171.542.043.798-.114.271-.356.457-.627.499-5.873 1.041-12.358 2.395-13.94 3.022.499 3.906 5.716 28.037 6.699 30.945z" class="B C"/><path d="M131.348 143.997c-1.483 0-2.78-.356-3.877-1.054-3.207-2.053-4.062-6.657-4.647-10.605l-13.797 2.437a.87.87 0 0 1-1.012-.698c-.072-.47.242-.927.712-.998l14.682-2.594c.228-.043.47.014.655.142.186.143.314.357.357.585.541 3.806 1.211 8.509 3.976 10.277 1.497.955 3.507 1.04 6.144.242 1.81-.542 2.993-1.497 3.592-2.936 1.582-3.82-1.483-9.593-1.511-9.65a.8.8 0 0 1-.029-.741c.1-.242.3-.428.556-.499 4.918-1.354 10.534-3.364 11.432-4.333l-8.339-27.809c-1.254-.043-6.214 1.311-10.362 2.694-.3.1-.627.028-.855-.185-.243-.214-.328-.542-.257-.841.47-1.91.841-8.524-2.266-11.888-1.483-1.596-3.578-2.181-6.258-1.739-1.967.328-3.235 1.154-3.877 2.537-1.696 3.606 1.411 10.305 2.751 12.586a.89.89 0 0 1 .057.784c-.114.242-.342.442-.613.499l-19 4.319c-.47.1-.927-.185-1.04-.656-.1-.456.185-.926.656-1.026l17.889-4.076c-1.297-2.494-4.219-8.98-2.267-13.171.884-1.896 2.623-3.079 5.16-3.506 3.278-.542 5.915.228 7.811 2.281 3.036 3.278 3.25 8.937 2.922 12.002 9.593-3.107 10.405-2.295 10.762-1.939.271.271.912.912 8.851 28.878.072.228.1.599-.128 1.012-.969 1.711-7.783 3.877-11.574 4.961.898 1.981 2.594 6.585 1.126 10.163-.798 1.924-2.38 3.249-4.689 3.948-1.34.399-2.571.598-3.692.598z" class="B"/><g class="C B"><path d="M85.408 132.366c-.47 0-.955-.171-1.354-.484-.684-.513-1.083-1.34-1.083-2.224l.014-.157c.014-.784.128-1.525.342-2.18.2-.656.47-1.283.798-1.839l.955-1.54.927-1.411c.271-.413.485-.855.656-1.325.157-.442.257-.941.299-1.454.029-.513-.057-1.098-.228-1.739-.342-1.212-.927-2.053-1.782-2.537-.841-.471-1.867-.542-3.107-.186-1.254.357-2.11.97-2.609 1.882-.371.684-.542 1.44-.513 2.323.014 1.198-.698 2.181-1.739 2.395l-.185.028c-.627.129-1.297-.042-1.824-.484-.627-.499-.998-1.297-1.012-2.124-.014-1.81.371-3.407 1.154-4.761 1.097-1.91 2.908-3.235 5.374-3.934 2.551-.727 4.818-.556 6.742.499s3.264 2.894 3.991 5.474c.285 1.012.413 1.981.399 2.879-.028.884-.185 1.753-.47 2.58-.271.826-.784 1.81-1.568 3.022l-.955 1.453c-.499.784-.841 1.54-.969 2.238a4.82 4.82 0 0 0-.086 1.098c.057 1.154-.599 2.138-1.596 2.423-.19.057-.38.085-.57.085zm-2.095-19.028c.912 0 1.744.214 2.494.641 1.254.713 2.124 1.91 2.58 3.564.242.826.342 1.61.299 2.309a7.3 7.3 0 0 1-.399 1.952c-.214.585-.485 1.141-.827 1.668l-.941 1.44-.898 1.439a6.19 6.19 0 0 0-.641 1.469c-.171.527-.257 1.097-.271 1.738v.114a1.07 1.07 0 0 0 .385.841c.1.072.242.157.413.114.214-.071.356-.356.342-.684-.028-.499.014-1.012.114-1.511.185-.94.599-1.895 1.226-2.85l.941-1.454c.698-1.069 1.169-1.953 1.397-2.637.214-.656.342-1.354.356-2.081.029-.713-.085-1.511-.328-2.352-.599-2.138-1.639-3.592-3.164-4.419-1.525-.841-3.307-.955-5.431-.356-2.052.57-3.464 1.596-4.347 3.122-.627 1.083-.941 2.394-.926 3.877.014.327.157.627.385.812.071.071.228.171.399.128l.171-.028c.214-.043.356-.328.342-.67-.014-1.169.228-2.238.741-3.179.727-1.325 1.953-2.238 3.649-2.722.675-.19 1.321-.285 1.939-.285z"/><path d="M86.434 137.868a2.79 2.79 0 0 1-1.297-.327c-.641-.357-1.112-.927-1.297-1.625l-.171-.585c-.399-1.425.456-2.922 1.91-3.335l.456-.128c.713-.2 1.44-.114 2.081.228a2.68 2.68 0 0 1 1.297 1.625l.157.57c.399 1.425-.442 2.922-1.896 3.335l-.47.143a3.08 3.08 0 0 1-.77.099zm.371-4.376a1.05 1.05 0 0 0-.299.043l-.456.129c-.542.156-.855.684-.713 1.197l.157.584c.071.243.242.442.47.57a1.02 1.02 0 0 0 .77.086l.47-.128c.527-.157.855-.699.699-1.212l-.157-.57c-.071-.257-.228-.456-.456-.57-.157-.086-.328-.129-.485-.129zm42.162-5.501a2.75 2.75 0 0 1-1.425-.414c-.627-.385-1.083-1.012-1.297-1.753l-.171-.641c-.442-1.554.385-3.136 1.839-3.55l.47-.128c1.454-.413 2.979.513 3.421 2.053l.185.655c.442 1.54-.385 3.136-1.838 3.549l-.471.129a2.65 2.65 0 0 1-.713.1zm.115-4.861a.94.94 0 0 0-.229.029l-.47.142c-.542.143-.827.784-.656 1.411l.186.656c.085.313.285.584.541.741a.96.96 0 0 0 .756.114l.47-.128c.528-.157.827-.784.642-1.411l-.186-.656c-.142-.542-.598-.898-1.054-.898zm-.343-3.891c-.441 0-.798-.328-.855-.77-.071-.257-.499-1.226-.912-2.166-2.751-6.229-5.587-13.142-4.305-16.264.285-.698.784-1.212 1.44-1.482a2.05 2.05 0 0 1 1.981.214c3.35 2.267 3.521 16.72 3.521 19.599a1.09 1.09 0 0 1-.114.428c-.157.271-.428.442-.756.442zm-3.82-19.114a.46.46 0 0 0-.171.042c-.156.057-.342.171-.484.528-.955 2.323 1.71 8.98 3.506 13.127-.299-6.043-1.14-12.6-2.651-13.626-.071-.043-.128-.071-.2-.071z"/></g><path d="M68.689 139.978c-.2 0-.371-.143-.413-.342l-5.188-24.203c-.043-.228.1-.456.328-.513.242-.043.47.1.513.342l5.188 24.189a.43.43 0 0 1-.328.513.33.33 0 0 1-.1.014zm1.739 2.594a.44.44 0 0 1-.428-.342c-.057-.228.086-.456.328-.513l14.681-3.464a.44.44 0 0 1 .527.328c.043.228-.1.456-.328.513l-14.681 3.464c-.038.009-.071.014-.1.014z" class="B"/><path d="M70.428 139.108a.44.44 0 0 1-.428-.342l-1.725-7.768a.42.42 0 0 1 .328-.513c.228-.057.456.085.513.328l1.725 7.768a.41.41 0 0 1-.328.513c-.028.01-.057.014-.086.014zm68.246-12.101a.43.43 0 0 1-.399-.271.44.44 0 0 1 .242-.556l8.638-3.449c.228-.1.471.014.57.228.086.228-.028.485-.242.57l-8.638 3.45c-.057.019-.114.028-.171.028zm6.913-5.174a.44.44 0 0 1-.413-.314l-6.913-24.202c-.057-.228.071-.456.299-.527.228-.057.471.071.542.299l6.899 24.189c.071.228-.057.47-.285.542a.71.71 0 0 1-.129.014zm-6.043-13.826c-.186 0-.371-.128-.414-.314l-2.594-9.507a.429.429 0 1 1 .827-.228l2.594 9.507c.071.228-.071.456-.299.528-.038.009-.076.014-.114.014zm-44.5-6.913a.87.87 0 0 1-.713-.385l-5.188-7.783c-.257-.385-.157-.926.242-1.197a.87.87 0 0 1 1.197.242l5.188 7.783a.87.87 0 0 1-.242 1.197c-.142.1-.314.143-.485.143zm2.594-2.594a.87.87 0 0 1-.855-.727l-1.725-11.232a.87.87 0 0 1 .727-.984c.456-.085.912.242.984.713l1.725 11.232a.87.87 0 0 1-.727.983.53.53 0 0 1-.128.014zm3.464-.87a.52.52 0 0 1-.243-.029.87.87 0 0 1-.598-1.069l1.738-6.044a.86.86 0 0 1 1.055-.599.86.86 0 0 1 .599 1.069l-1.725 6.058a.87.87 0 0 1-.826.613z" class="B"/><path d="M185.968 133.065a.87.87 0 0 1-.812-.599c-.1-.285-9.037-28.051-11.475-45.07-.042-.285.057-.584.285-.77a.84.84 0 0 1 .784-.2c11.731 3.036 25.885 6.984 26.698 8.624.342.67 1.126 2.238-19.742 19.77 2.637 9.507 5.046 16.962 5.089 17.105a.88.88 0 0 1-.556 1.097.84.84 0 0 1-.271.043zm-10.377-44.628c1.155 7.383 3.407 16.549 5.602 24.56 8.495-7.17 17.276-15.166 18.516-17.247-2.238-1.297-14.781-4.875-24.118-7.312z" class="B C"/><path d="M182.291 109.347a.38.38 0 0 1-.328-.171c-.157-.186-.114-.456.071-.599l7.355-5.716c.185-.157.456-.114.599.072s.114.456-.072.612l-7.355 5.716c-.071.057-.171.086-.27.086zm9.806-7.355a.41.41 0 0 1-.299-.128c-.171-.157-.171-.442 0-.599l5.716-5.73c.171-.157.441-.157.612 0a.43.43 0 0 1 0 .613l-5.715 5.716c-.086.085-.2.128-.314.128z" class="B"/><path d="M174.109 31.978a16.01 16.01 0 0 1-15.993-15.993c0-8.809 7.17-15.978 15.993-15.978 8.809 0 15.978 7.17 15.978 15.978 0 8.823-7.169 15.993-15.978 15.993zm0-30.246c-7.868 0-14.268 6.4-14.268 14.254 0 7.868 6.4 14.254 14.268 14.254 7.854 0 14.254-6.386 14.254-14.254 0-7.854-6.4-14.254-14.254-14.254z" class="B C"/><path d="M298.957 25.92H186.638a.86.86 0 1 1 0-1.724h112.319c1.896 0 3.45-1.554 3.45-3.449V11.24c0-1.91-1.554-3.464-3.45-3.464H186.339a.862.862 0 1 1 0-1.725h112.618c2.851 0 5.174 2.323 5.174 5.188v9.507c0 2.851-2.323 5.174-5.174 5.174zM170.66 31.122c-.19 0-.366-.005-.528-.014-.47-.043-.827-.47-.769-.941a.85.85 0 0 1 .926-.784c1.539.143 5.103-.599 8.125-3.15 2.836-2.395 4.447-5.73 4.76-9.878.813-10.462-10.547-14.639-10.661-14.681-.442-.157-.685-.641-.514-1.098a.86.86 0 0 1 1.098-.527c.128.057 12.714 4.689 11.802 16.434-.342 4.576-2.209 8.396-5.374 11.075-3.164 2.665-6.827 3.563-8.865 3.563zm23.148-20.169h1.91v2.209l-.086 1.169c.47-.442 1.098-.884 1.981-.884 1.397 0 1.996.983 1.996 2.594v3.991h-1.91v-3.749c0-.927-.242-1.226-.798-1.226-.471 0-.77.228-1.183.627v4.347h-1.91v-9.08zm7.454 6.742v-2.608h-.883v-1.411l.997-.071.214-1.71h1.582v1.71h1.54v1.482h-1.54v2.58c0 .727.328 1.026.827 1.026.214 0 .442-.071.613-.128l.299 1.383a4.3 4.3 0 0 1-1.425.242c-1.597 0-2.224-1.012-2.224-2.494zm4.49 0v-2.608h-.869v-1.411l.983-.071.214-1.71h1.582v1.71h1.54v1.482h-1.54v2.58c0 .727.328 1.026.827 1.026.214 0 .442-.071.613-.128l.299 1.383a4.3 4.3 0 0 1-1.425.242c-1.582 0-2.224-1.012-2.224-2.494z" class="B"/><path d="M210.256 13.605h1.554l.128.627h.057c.499-.456 1.155-.784 1.825-.784 1.553 0 2.508 1.283 2.508 3.264 0 2.209-1.311 3.478-2.708 3.478-.541 0-1.069-.257-1.525-.684l.057 1.026v1.881h-1.896v-8.809zm4.12 3.136c0-1.155-.357-1.739-1.112-1.739-.399 0-.727.185-1.112.584v2.637c.356.299.713.413 1.026.413.67 0 1.198-.57 1.198-1.896z" class="B C"/><path d="M217.426 14.788c0-.684.485-1.197 1.154-1.197.656 0 1.155.513 1.155 1.197 0 .67-.499 1.197-1.155 1.197-.669 0-1.154-.527-1.154-1.197zm0 4.205c0-.684.485-1.212 1.154-1.212.656 0 1.155.527 1.155 1.212 0 .67-.499 1.197-1.155 1.197-.669 0-1.154-.527-1.154-1.197zm5.673-8.168h1.24L221.731 22.1h-1.24l2.608-11.275zm4.176 0h1.24L225.907 22.1h-1.24l2.608-11.275z" class="B"/><path d="M298.957 22.47h-69.986a.83.83 0 0 1-.655-.314c-.171-.185-.243-.442-.2-.698l1.725-10.362c.071-.413.428-.727.855-.727h68.261a.86.86 0 0 1 .855.87v10.362a.86.86 0 0 1-.855.87zm-68.974-1.725h68.105v-8.652h-66.665l-1.44 8.652z" class="B C"/><path d="M253.922 187.851h.94v5.545c0 .495-.091.916-.273 1.262s-.438.608-.769.788-.721.268-1.17.268c-.425 0-.802-.077-1.133-.231s-.591-.378-.78-.666-.284-.63-.284-1.027h.924c0 .22.054.412.163.576s.262.288.454.379.411.136.656.136a1.32 1.32 0 0 0 .689-.17 1.09 1.09 0 0 0 .432-.5c.101-.223.151-.494.151-.815v-5.545zm3.14 7.757h-.984l2.848-7.757h.97l2.848 7.757h-.985l-2.318-6.53h-.06l-2.319 6.53zm.364-3.03h3.97v.833h-3.97v-.833zm6.116-4.727l2.303 6.53h.091l2.303-6.53h.984l-2.848 7.757h-.97l-2.848-7.757h.985zm6.541 7.757h-.985l2.849-7.757h.97l2.848 7.757h-.985l-2.318-6.53h-.061l-2.318 6.53zm.364-3.03h3.97v.833h-3.97v-.833zM162.008 12.094a.73.73 0 0 1-.143-.014c-.214-.071-.342-.328-.271-.542 2.651-7.954 9.793-8.937 9.864-8.937.242-.029.456.143.484.371.029.242-.142.456-.37.485-.271.029-6.685.941-9.151 8.353-.057.171-.228.285-.413.285zm10.362 16.42h-.057c-12.358-1.767-11.603-13.313-11.603-13.427.015-.228.214-.413.471-.399.228.028.413.228.399.47-.043.442-.684 10.847 10.861 12.5.228.029.399.257.357.485a.43.43 0 0 1-.428.371zm-8.638-15.551c-.047 0-.09-.01-.128-.029-.228-.071-.356-.314-.271-.542.071-.214 1.839-5.416 5.488-6.329.228-.057.456.086.513.314s-.071.47-.314.527c-3.178.798-4.86 5.716-4.874 5.758-.057.185-.228.299-.414.299z" class="B"/><path d="M387.145 68.253c-.243 0-.471-.1-.627-.271l-14.539-15.793c-.242-.242-.299-.613-.157-.926.128-.314.442-.513.784-.513h4.861V31.864c0-.485.384-.87.869-.87h17.632c.484 0 .869.385.869.87V50.75h4.847a.86.86 0 0 1 .798.513c.142.314.071.684-.157.926l-14.539 15.793c-.171.171-.399.271-.641.271zm-12.572-15.779l12.572 13.641 12.572-13.641h-3.749a.86.86 0 0 1-.855-.869V32.719h-15.922v18.886a.86.86 0 0 1-.855.869h-3.763z" class="B C"/><path d="M395.968 46.887a.86.86 0 0 1-.855-.855c-.015-.485.37-.869.855-.884l4.604-.057 10.961-.114c7.098 0 12.857-5.901 12.857-13.156s-5.759-13.156-12.857-13.156h-.114-.1c-2.352 0-5.559.071-8.88 5.16a.86.86 0 0 1-1.055.328c-.385-.171-.598-.584-.513-.983 1.14-4.975.157-9.807-2.694-13.27-2.566-3.122-6.4-4.789-10.804-4.647-7.056.2-11.303 3.008-13.014 8.566-.071.228-.228.428-.456.527a.85.85 0 0 1-.698.014 5.37 5.37 0 0 0-2.01-.385c-2.495 0-4.618 1.682-5.174 4.091a.83.83 0 0 1-.385.542.89.89 0 0 1-.656.1c-.784-.2-1.568-.299-2.209-.299-7.098 0-12.871 5.901-12.871 13.156s5.773 13.156 12.871 13.156c2.138 0 6.614.114 11.346.242l4.148.1a.87.87 0 0 1 .841.884c-.015.485-.414.898-.884.841l-4.148-.1-11.303-.228c-8.053 0-14.596-6.685-14.596-14.895s6.543-14.881 14.596-14.881c.556 0 1.169.057 1.81.171.984-2.751 3.606-4.604 6.614-4.604.617 0 1.216.076 1.796.228 2.095-5.73 6.913-8.738 14.339-8.951 4.918-.143 9.265 1.725 12.187 5.274 2.551 3.107 3.763 7.155 3.506 11.474 3.193-3.35 6.229-3.35 8.41-3.35h.1c8.039 0 14.596 6.685 14.596 14.895s-6.557 14.881-14.596 14.881l-10.947.114-4.604.071zM371.551 7.875a.41.41 0 0 1-.185-.043c-.214-.1-.314-.356-.2-.57.029-.086 3.621-7.569 13.884-6.642.228.014.413.228.384.47-.014.228-.242.413-.47.385-9.621-.869-12.885 5.858-13.028 6.143-.071.157-.228.257-.385.257zm4.561 6.599c-.066 0-.133-.019-.199-.057-.214-.114-.285-.371-.171-.584s2.95-5.416 8.68-6.343c.228-.029.456.128.499.371.029.228-.128.456-.37.485-5.288.855-8.025 5.844-8.054 5.901-.071.143-.228.228-.385.228zm35.948 28.679c-.199 0-.37-.128-.413-.328a.44.44 0 0 1 .314-.527c.085-.014 8.366-2.124 8.837-9.835a.44.44 0 0 1 .456-.399c.242.014.428.214.413.456-.513 8.338-9.407 10.605-9.507 10.619a.33.33 0 0 1-.1.014zm-47.835.057c-10.705-.827-12.657-10.177-12.686-10.277-.043-.228.114-.456.342-.513a.44.44 0 0 1 .513.342c.072.356 1.868 8.809 11.859 9.578.243.029.428.228.399.47-.014.228-.199.399-.427.399zm2.494-2.495c-10.704-.812-12.671-10.177-12.686-10.277-.042-.228.1-.456.343-.499.228-.057.456.1.498.342.072.356 1.868 8.809 11.874 9.579a.43.43 0 0 1 .399.456c-.014.228-.214.399-.428.399z" class="B"/><path d="M278.56 54.527a5.53 5.53 0 0 1-1.596-.228 5.49 5.49 0 0 1-3.25-2.665 5.46 5.46 0 0 1-.414-4.176c.414-1.397 1.369-2.551 2.652-3.236 1.297-.698 2.779-.855 4.176-.428 2.894.87 4.533 3.934 3.663 6.828-.413 1.411-1.368 2.566-2.651 3.25a5.38 5.38 0 0 1-2.58.656zm-.014-9.236a3.66 3.66 0 0 0-1.768.442c-.883.485-1.539 1.269-1.824 2.224a3.78 3.78 0 0 0 .285 2.865 3.7 3.7 0 0 0 2.224 1.81 3.66 3.66 0 0 0 4.675-2.509c.598-1.981-.528-4.077-2.509-4.675a4.06 4.06 0 0 0-1.083-.157zM254.3 71.503a5.57 5.57 0 0 1-1.582-.242c-1.397-.413-2.551-1.368-3.25-2.651-.684-1.297-.841-2.779-.413-4.176a5.52 5.52 0 0 1 2.651-3.25c1.297-.684 2.78-.841 4.176-.413 2.894.87 4.547 3.934 3.664 6.828-.713 2.366-2.894 3.906-5.246 3.906zm0-9.236a3.69 3.69 0 0 0-1.767.442c-.884.47-1.54 1.269-1.825 2.224s-.185 1.981.285 2.865c.485.884 1.269 1.525 2.224 1.81 1.981.599 4.077-.527 4.675-2.509s-.527-4.076-2.508-4.675c-.357-.114-.727-.157-1.084-.157zm-38.271 3.848c-.542 0-1.069-.085-1.596-.242-1.397-.428-2.552-1.368-3.25-2.651-.684-1.297-.841-2.779-.413-4.176.413-1.397 1.368-2.551 2.651-3.25a5.4 5.4 0 0 1 4.176-.413c1.397.413 2.551 1.368 3.25 2.651.684 1.297.841 2.779.413 4.176-.413 1.397-1.368 2.551-2.651 3.25-.812.428-1.696.656-2.58.656zm-.014-9.251a3.67 3.67 0 0 0-1.768.456c-.883.47-1.539 1.269-1.824 2.224-.599 1.981.527 4.077 2.509 4.675.955.285 1.981.185 2.865-.285a3.7 3.7 0 0 0 1.81-2.224c.285-.955.185-1.981-.285-2.865a3.7 3.7 0 0 0-2.224-1.81 3.58 3.58 0 0 0-1.083-.171z" class="C B"/><path d="M251.307 62.481c-.299 0-.584-.142-.741-.413-3.393-5.687-7.697-12.087-8.837-12.729-1.597.057-11.746 5.06-20.768 9.921a.861.861 0 1 1-.827-1.511c7.441-4.02 20.183-10.647 22.079-10.092 1.939.599 7.526 9.65 9.835 13.527.243.399.114.927-.299 1.183a.97.97 0 0 1-.442.114zm7.412 1.91c-.271 0-.527-.128-.698-.342-.286-.385-.214-.926.171-1.212L273.7 51.049c.384-.285.926-.214 1.211.171.299.371.214.912-.157 1.212l-15.522 11.774c-.157.128-.328.185-.513.185zm32.598-7.298c-2.166-.1-7.283-5.431-8.794-7.07-.328-.342-.314-.884.042-1.212.343-.328.898-.313 1.212.043 2.822 3.022 6.457 6.286 7.526 6.5 2.323-.884 20.753-16.591 31.957-26.398.356-.314.898-.285 1.211.071s.285.912-.085 1.226c-11.446 10.035-30.959 26.84-33.069 26.84z" class="B"/><path d="M318.641 48.498a.92.92 0 0 1-.356-.071c-.427-.185-.627-.698-.442-1.14 3.578-8.281 5.973-16.178 5.203-17.233-1.269-.741-10.562 2.223-18.43 5.402-.442.185-.955-.029-1.126-.47-.186-.442.028-.955.47-1.126 5.246-2.124 17.718-6.884 20.112-5.203 2.48 1.753-1.839 12.857-4.647 19.328-.142.314-.456.513-.784.513z" class="B"/><path d="M437.304 130.471h-15.708c-.485 0-.869-.385-.869-.87V99.184a.86.86 0 0 1 .869-.855h15.708a.86.86 0 0 1 .855.855v30.417a.86.86 0 0 1-.855.87zm-14.853-1.725h13.983v-28.693h-13.983v28.693zm34.252 1.725H441.01c-.485 0-.87-.385-.87-.87V88.935a.86.86 0 0 1 .87-.855h15.693a.86.86 0 0 1 .869.855v40.666c0 .485-.384.87-.869.87zm-14.838-1.725h13.983V89.805h-13.983v38.941zm34.251 1.725h-15.693c-.485 0-.869-.385-.869-.87V76.877c0-.485.384-.87.869-.87h15.693c.485 0 .87.385.87.87v52.724c0 .485-.385.87-.87.87zm-14.838-1.725h13.983V77.732h-13.983v51.014z" class="C B"/><path d="M417.748 89.106a.87.87 0 0 1-.856-.812c-.028-.47.342-.884.813-.912.37-.029 36.675-2.452 55.048-28.564a.88.88 0 0 1 1.211-.214c.385.285.485.827.2 1.212-18.858 26.811-55.989 29.263-56.359 29.291h-.057z" class="B"/><path d="M474.948 68.111c-.428 0-.813-.328-.856-.77l-.869-7.868-8.923 2.822c-.456.143-.941-.114-1.083-.57a.87.87 0 0 1 .556-1.083l9.92-3.136a.86.86 0 0 1 .741.1.87.87 0 0 1 .385.627l.984 8.923c.057.47-.285.898-.756.955h-.099zm-14.525 61.447c-.114 0-.228-.057-.313-.142a.43.43 0 0 1 .028-.613l15.508-14.539a.43.43 0 0 1 .613.014c.157.172.157.442-.014.613l-15.523 14.539c-.085.086-.185.128-.299.128zm5.017.485c-.128 0-.242-.057-.327-.157-.157-.171-.143-.442.042-.613l10.505-9.208c.186-.156.456-.142.613.043s.129.456-.043.613l-10.505 9.208c-.085.071-.185.114-.285.114z" class="B"/><path d="M460.266 94.808c-.099 0-.199-.043-.285-.114-.185-.157-.199-.428-.043-.613l15.68-17.618a.42.42 0 0 1 .612-.028c.186.157.2.428.043.599l-15.679 17.617a.45.45 0 0 1-.328.157zm1.126-6.956c-.099 0-.213-.043-.285-.114a.43.43 0 0 1-.028-.613l9.863-10.505c.157-.185.442-.185.613-.028.171.171.186.442.015.613l-9.864 10.505c-.086.1-.2.142-.314.142zm9.707 41.706a.43.43 0 0 1-.328-.156c-.157-.171-.142-.456.043-.613l5.003-4.362c.185-.157.456-.128.613.043a.43.43 0 0 1-.043.613l-5.003 4.361c-.085.072-.185.114-.285.114zm-29.092-.969a.46.46 0 0 1-.299-.114c-.171-.157-.185-.427-.029-.613l14.539-16.477c.157-.185.442-.2.613-.043a.43.43 0 0 1 .043.613l-14.553 16.477c-.086.1-.2.157-.314.157zm3.706 1.454a.44.44 0 0 1-.299-.128.43.43 0 0 1 0-.613l10.819-11.147c.171-.171.441-.171.612-.014.172.171.186.442.015.613l-10.833 11.147c-.086.099-.2.142-.314.142zm-4.532-7.683c-.057 0-.1-.014-.129-.028-.171-.086-.313-.342-.285-.528a.42.42 0 0 1 .471-.384h.042c1.468-1.098 9.222-10.163 13.969-15.851.157-.185.428-.213.599-.057.185.157.213.428.057.613-12.444 14.938-14.24 16.235-14.724 16.235z" class="B"/><path d="M20.896 119.182c-3.592 0-7.284-.485-10.804-1.725a.82.82 0 0 1-.485-.413c-.071-.157-7.469-15.024 5.288-30.332 3.863-4.632.841-9.279.813-9.336-.019-.019-.033-.043-.043-.071-.043-.071-1.04-1.625-5.673-3.948C2.309 69.508 0 49.552 0 47.528c0-.413.228-.77.641-1.083 3.107-2.238 23.69-5.545 33.339-2.338a.89.89 0 0 1 .556.613c.214.827 5.231 20.525-3.792 26.84-3.264 2.281-4.875 4.903-4.675 7.597.185 2.566 2.01 4.761 3.692 5.616 4.49 2.238 14.311 12.5 14.311 28.422 0 .328-.2.627-.499.77-.57.285-11.118 5.217-22.678 5.217zm-9.892-3.236c12.786 4.319 28.379-2.024 31.33-3.307-.228-16.263-10.719-25.015-13.341-26.326-2.067-1.026-4.404-3.677-4.647-7.027-.171-2.323.627-5.801 5.402-9.137 7.355-5.16 3.92-21.58 3.236-24.545-10.035-3.036-29.092.77-31.244 2.181.143 3.549 2.765 20.896 9.023 24.018 4.989 2.494 6.2 4.29 6.4 4.661.342.527 3.521 6.001-.941 11.36-11.161 13.398-6.2 25.97-5.217 28.122z" class="B C"/><path d="M1.739 53.572c-.342 0-.67-.2-.798-.542a.86.86 0 0 1 .47-1.126c.627-.257 15.779-6.314 33.339-2.637.456.1.755.556.656 1.026s-.556.77-1.012.67c-17.019-3.578-32.185 2.48-32.327 2.551-.114.038-.223.057-.328.057zm19.114 59.637c-6.357 0-11.104-.826-11.503-.898a.86.86 0 0 1-.684-.997c.071-.471.527-.784.998-.699.185.029 19.1 3.321 32.285-3.378a.88.88 0 0 1 1.169.371c.214.427.043.955-.385 1.169-6.97 3.549-15.294 4.432-21.879 4.432z" class="B"/><path d="M22.036 84.674c-1.026 0-1.197-1.055-1.668-4.205l-.485-3.064c-.527-3.179-2.38-4.248-5.174-5.858-1.511-.87-3.221-1.867-5.046-3.392-4.134-3.435-6.371-9.065-5.887-12.158.2-1.197.77-2.024 1.682-2.395 4.148-1.653 19.955-5.331 26.298-1.696.998.57 1.597 1.753 1.725 3.435.356 4.547-2.665 11.902-5.987 14.553-3.193 2.551-5.032 4.946-5.032 6.571 0 .855.1 2.01.2 3.136.242 2.993.314 4.362-.157 4.861-.114.143-.285.214-.47.214zm1.796-33.453c-6.884 0-15.308 2.095-18.045 3.179-.627.257-1.012.841-1.155 1.725-.442 2.808 1.739 8.167 5.587 11.374 1.767 1.482 3.449 2.437 4.917 3.293 2.794 1.611 5.003 2.893 5.602 6.471l.485 3.079c.256 1.696.456 3.065.698 3.392.157-.627 0-2.665-.128-4.062-.085-1.14-.185-2.323-.185-3.207 0-2.58 3.35-5.644 5.345-7.241 3.093-2.48 6.001-9.578 5.673-13.826-.071-.955-.356-2.209-1.297-2.751-1.81-1.026-4.504-1.425-7.497-1.425zm-4.233 59.337c-3.535 0-6.4-.299-7.298-.898-.713-.47-1.083-1.04-1.14-1.71-.114-1.483 1.468-2.908 2.395-3.777l.399-.357c.242-.242.684-.541 1.311-.955 1.824-1.24 4.875-3.292 5.488-5.758.841-3.364.855-8.481.855-8.538 0-.413.257-.627.513-.641.827-.085 2.238 2.437 2.936 6.614.756 4.533 3.549 6.557 9.08 6.557 2.323 0 5.16.77 5.858 2.451.428 1.055.014 2.21-1.24 3.464-2.352 2.366-12.101 3.549-19.157 3.549zm2.865-21.323c-.028 1.525-.185 5.302-.869 8.068-.698 2.794-3.92 4.975-5.858 6.272-.527.356-.998.67-1.169.855l-.428.385c-.77.713-2.195 2.01-2.124 3.065.043.399.285.741.755 1.069 2.509 1.667 22.122.712 25.372-2.538.983-.983 1.34-1.838 1.055-2.537-.513-1.24-2.993-1.91-5.06-1.91-5.958 0-9.108-2.323-9.935-7.283-.485-2.922-1.254-4.661-1.739-5.445z" class="C B"/><path d="M10.804 111.456c-.2 0-.371-.128-.413-.328-3.478-13.911 7.783-24.502 7.897-24.601a.43.43 0 0 1 .613.014c.157.171.157.456-.029.613-.114.1-11.004 10.362-7.654 23.775.071.228-.071.456-.314.513-.028.009-.062.014-.1.014z" class="B"/><path d="M12.672 117.514a.43.43 0 0 1-.399-.285l-1.867-5.188c-.086-.228.028-.471.257-.556a.44.44 0 0 1 .556.256l1.867 5.189a.44.44 0 0 1-.257.556.42.42 0 0 1-.157.028zm2.024.713a.44.44 0 0 1-.413-.285l-2.152-5.901c-.085-.228.029-.471.257-.556.228-.072.47.043.556.256l2.152 5.901c.085.228-.028.485-.257.556-.048.019-.095.029-.143.029zm25.485-4.177a.43.43 0 0 1-.428-.37l-.57-4.177c-.043-.242.128-.456.371-.484.228-.043.442.128.485.37l.57 4.177a.43.43 0 0 1-.371.484h-.057zm-1.867 1.725c-.214 0-.413-.157-.428-.37l-.584-4.904c-.029-.228.143-.456.385-.47.228-.043.442.128.47.37l.584 4.904c.029.228-.143.442-.385.47h-.043zM34.993 95.05c-.171 0-.328-.114-.399-.271-1.653-4.148-8.395-8.395-8.467-8.438-.2-.128-.256-.399-.128-.599.114-.2.385-.257.584-.143.285.185 7.055 4.447 8.823 8.852.086.228-.029.47-.242.556a.38.38 0 0 1-.171.043zm5.188 13.812c-.2 0-.371-.128-.413-.314-1.682-6.742-4.219-10.191-4.248-10.219-.143-.185-.114-.456.086-.599a.42.42 0 0 1 .599.085c.114.143 2.666 3.607 4.39 10.52.071.228-.071.47-.313.527h-.1zM12.529 71.717a.4.4 0 0 1-.271-.1c-5.245-4.376-6.984-13.684-7.056-14.083-.043-.228.114-.456.342-.499.242-.043.456.114.499.342.014.1 1.767 9.408 6.771 13.569.185.157.2.428.057.613-.085.1-.214.157-.342.157zm-9.493-19.87c-.242 0-.442-.2-.442-.442v-5.174c0-.242.2-.442.442-.442.228 0 .428.2.428.442v5.174c0 .242-.2.442-.428.442zm1.725 0c-.242 0-.442-.2-.442-.442v-5.317c0-.242.2-.442.442-.442s.428.2.428.442v5.317c0 .242-.185.442-.428.442z" class="B"/><g class="C B"><path d="M175.549 62.352H153.37a.86.86 0 0 1-.87-.855V39.318c0-.485.385-.87.87-.87h22.179a.86.86 0 0 1 .855.87v22.179a.86.86 0 0 1-.855.855zm-21.324-1.725h20.454V40.174h-20.454v20.454z"/><path d="M186.638 71.86H166.74a.86.86 0 0 1-.855-.87V51.106a.86.86 0 0 1 .855-.855h19.898a.86.86 0 0 1 .855.855V70.99a.86.86 0 0 1-.855.87zm-19.029-1.725h18.159V51.976h-18.159v18.159zm62.517 98.35c-2.437 0-12.486-.427-13.455-2.38-.756-1.482.384-7.54 1.211-11.289-1.824.656-4.661 1.397-6.1.47-.442-.285-.955-.841-.955-1.881 0-3.863 6.499-14.881 8.537-18.245-1.81-1.981-2.793-4.518-2.793-7.212 0-5.916 4.818-10.719 10.719-10.719 5.915 0 10.718 4.803 10.718 10.719a10.67 10.67 0 0 1-2.295 6.613c2.01 3.507 8.838 15.779 8.025 19.058-.114.442-.413.812-.855 1.026-1.154.584-3.478-.014-5.174-.599 1.041 3.393 2.879 10.021 1.853 12.059-.299.599-1.183 2.38-9.436 2.38zm-11.945-3.221c1.412.955 12.244 2.138 17.561 1.055 1.896-.385 2.224-.884 2.281-.984.684-1.382-1.055-8.124-2.509-12.472-.114-.328-.029-.684.228-.912a.85.85 0 0 1 .926-.157c2.281.969 4.79 1.582 5.403 1.326.37-2.152-4.376-11.645-7.997-17.931a.9.9 0 0 1-.242-.314c-.143-.314-.086-.67.143-.926 1.496-1.668 2.309-3.792 2.309-6.001 0-4.961-4.034-8.994-8.994-8.994s-8.995 4.033-8.995 8.994a8.93 8.93 0 0 0 2.751 6.457c.3.285.357.741.143 1.083-2.993 4.86-8.638 14.881-8.638 17.917 0 .313.1.385.171.428.912.584 4.12-.371 6.001-1.212a.88.88 0 0 1 .912.114c.243.214.357.542.285.869-1.111 4.804-2.066 10.52-1.739 11.66zm67.791 3.221c-2.437 0-12.486-.427-13.455-2.38-.756-1.482.384-7.54 1.211-11.289-1.824.656-4.661 1.397-6.1.47-.442-.285-.955-.841-.955-1.881 0-3.863 6.499-14.881 8.537-18.245-1.81-1.981-2.793-4.518-2.793-7.212 0-5.916 4.818-10.719 10.719-10.719 5.915 0 10.718 4.803 10.718 10.719a10.67 10.67 0 0 1-2.295 6.613c2.01 3.507 8.838 15.779 8.025 19.058-.114.442-.413.812-.855 1.026-1.169.584-3.478-.014-5.188-.599 1.055 3.393 2.893 10.021 1.867 12.059-.299.599-1.183 2.38-9.436 2.38zm-11.945-3.221c1.412.955 12.244 2.138 17.561 1.055 1.896-.385 2.224-.884 2.281-.984.684-1.382-1.055-8.124-2.509-12.472-.114-.328-.029-.684.228-.912a.85.85 0 0 1 .926-.157c2.281.969 4.804 1.582 5.403 1.326.37-2.152-4.376-11.645-7.997-17.931a.9.9 0 0 1-.242-.314c-.143-.314-.086-.67.143-.926 1.496-1.668 2.309-3.792 2.309-6.001 0-4.961-4.034-8.994-8.994-8.994s-8.995 4.033-8.995 8.994a8.93 8.93 0 0 0 2.751 6.457c.3.285.357.741.143 1.083-2.993 4.86-8.638 14.867-8.638 17.917 0 .313.1.385.171.428.898.584 4.12-.371 6.001-1.212a.88.88 0 0 1 .912.114c.243.214.357.542.285.869-1.111 4.804-2.066 10.52-1.739 11.66z"/><path d="M235.5 118.141a.87.87 0 0 1-.599-1.482c1.668-1.668 3.563-7.64 4.533-11.289-3.621-2.951-5.616-6.714-5.616-10.69 0-8.851 9.963-16.05 22.221-16.05 12.244 0 22.222 7.198 22.222 16.05 0 4.162-2.167 8.067-6.087 11.046.414 2.081 1.654 8.21 3.393 10.149.285.313.299.798.028 1.126-.285.328-.755.413-1.126.185-.299-.185-6.998-4.333-9.421-7.811-2.837.912-5.873 1.369-9.009 1.369-3.107 0-7.754-1.084-9.45-1.511-2.281 3.392-9.735 8.196-10.619 8.766-.142.085-.299.142-.47.142zm20.539-37.786c-11.303 0-20.497 6.428-20.497 14.325 0 3.578 1.925 7.012 5.388 9.664.285.213.399.57.314.912-.299 1.169-1.497 5.687-3.022 9.122 2.865-2.038 6.315-4.789 7.184-6.528a.85.85 0 0 1 .998-.442c.057.014 6.086 1.611 9.635 1.611 3.193 0 6.243-.513 9.094-1.497.399-.142.841.029 1.041.399 1.054 1.882 4.048 4.248 6.343 5.887-.87-2.309-1.526-5.217-2.039-7.768l-.1-.499c-.071-.342.058-.684.343-.884 3.748-2.694 5.801-6.229 5.801-9.977 0-7.896-9.194-14.325-20.483-14.325zm.214 25.457c-1.24 0-2.323-.898-2.494-2.096l-.072-.484c-.085-.627.086-1.24.471-1.725a2.46 2.46 0 0 1 1.696-.912l.413-.043c1.354-.128 2.566.798 2.751 2.081l.057.485a2.26 2.26 0 0 1-.47 1.725 2.4 2.4 0 0 1-1.682.912l-.428.043-.242.014zm.271-3.549h-.086l-.413.042c-.214.029-.385.114-.499.271a.58.58 0 0 0-.128.414l.071.498c.057.371.442.642.855.599l.414-.043c.214-.028.399-.114.513-.271.071-.085.142-.228.114-.413l-.071-.499c-.043-.342-.385-.598-.77-.598zm.485-2.851a1.04 1.04 0 0 1-.172-.014.87.87 0 0 1-.698-.855c-.043-.228-.257-.927-.47-1.611-1.468-4.789-2.908-10.106-1.511-12.429.37-.613.926-.998 1.596-1.14a2.07 2.07 0 0 1 1.867.556c2.395 2.395.613 12.729.228 14.781-.071.413-.441.713-.84.713zm-.813-14.353h-.114a.62.62 0 0 0-.442.342c-.898 1.482.228 6.044 1.112 9.094.485-4.091.613-8.381-.356-9.35-.057-.057-.114-.085-.2-.085z"/></g><path d="M213.335 155.073h-.043c-.242-.029-.413-.243-.384-.485.342-3.449 8.366-18.444 9.863-18.444.242 0 .442.185.442.427 0 .2-.143.357-.314.414-1.168.855-8.766 13.94-9.136 17.703-.029.214-.214.385-.428.385zm7.797-22.179c-.228 0-.428-.185-.428-.414-.014-.114-.156-.427-.285-.712-.869-2.024-2.907-6.756 2.11-10.334.185-.143.456-.086.598.1.143.199.1.47-.099.598-4.447 3.179-2.666 7.312-1.811 9.294.229.513.343.798.343 1.04a.42.42 0 0 1-.428.428zm13.142-8.21c-.185 0-.356-.129-.413-.314-1.511-5.288-8.239-3.863-8.524-3.806a.42.42 0 0 1-.513-.327c-.057-.229.085-.457.328-.514.071-.014 7.796-1.667 9.535 4.405.071.228-.071.47-.299.541-.038.01-.076.015-.114.015zm62.417 28.749c-.171 0-.328-.099-.399-.256l-7.384-16.435c-.099-.214 0-.47.214-.57a.44.44 0 0 1 .57.228l7.398 16.42a.44.44 0 0 1-.228.571c-.057.028-.114.042-.171.042zm-5.744-25.471c-.229 0-.414-.157-.442-.385-.756-6.899-6.7-6.998-6.956-6.998a.43.43 0 0 1-.428-.428c0-.242.186-.442.428-.442.071 0 6.97.1 7.825 7.783.029.228-.142.442-.385.47h-.042zm1.639 39.64c-.243 0-.428-.2-.428-.442 0-2.994-2.437-12.315-2.451-12.415a.42.42 0 0 1 .299-.528c.242-.057.47.086.527.314.1.385 2.48 9.536 2.48 12.629 0 .242-.185.442-.427.442zm-16.421-40.452h-.057c-.242-.029-.413-.257-.384-.485.327-2.594 1.183-4.404 2.551-5.388 1.411-1.012 2.837-.741 2.894-.741.242.057.384.285.342.513a.43.43 0 0 1-.514.342c-.057-.014-1.14-.199-2.223.599-1.169.841-1.896 2.451-2.181 4.775a.43.43 0 0 1-.428.385zm-34.508-24.645c-.057 0-.119-.014-.185-.043-1.026-.513-2.566-2.822-3.264-5.659-.585-2.338-.798-5.773 1.468-8.937 4.675-6.557 16.278-6.756 17.589-6.756.242 0 .442.2.442.442 0 .228-.2.428-.442.428-1.254 0-12.458.171-16.891 6.386-2.066 2.893-1.867 6.072-1.339 8.224.698 2.808 2.195 4.789 2.822 5.102.214.1.299.371.199.585-.085.142-.228.228-.399.228zm27.111 1.653a.43.43 0 0 1-.399-.27c-.1-.214.014-.471.228-.571.228-.085 5.487-2.437 5.487-8.637 0-2.865-1.382-6.984-7.967-10.277-.214-.114-.314-.371-.2-.584.1-.214.371-.299.584-.2 6.985 3.492 8.453 7.954 8.453 11.061 0 6.784-5.958 9.407-6.015 9.436s-.114.042-.171.042z" class="B"/><path d="M316.361 73.328c-7.797 0-15.679-1.91-15.679-5.559s7.882-5.559 15.679-5.559 15.679 1.91 15.679 5.559-7.882 5.559-15.679 5.559zm0-9.393c-8.51 0-13.954 2.281-13.954 3.834 0 1.568 5.444 3.834 13.954 3.834s13.954-2.266 13.954-3.834c0-1.554-5.445-3.834-13.954-3.834z" class="B C"/><path d="M301.551 98.628c-.484 0-.869-.385-.869-.87V67.412c0-.47.385-.87.869-.87a.87.87 0 0 1 .856.87v30.346a.86.86 0 0 1-.856.87zm29.62.727a.87.87 0 0 1-.856-.87V67.412a.87.87 0 0 1 .856-.87c.484 0 .869.399.869.87v31.073c0 .47-.385.87-.869.87z" class="B"/><path d="M316.361 103.688c-7.797 0-15.679-1.91-15.679-5.559 0-.485.385-.869.869-.869a.86.86 0 0 1 .856.869c0 1.554 5.444 3.834 13.954 3.834 7.269 0 12.714-1.71 13.783-3.364.257-.399.798-.513 1.198-.257a.87.87 0 0 1 .256 1.197c-1.596 2.48-7.725 4.148-15.237 4.148zm.157-7.954c-7.868 0-15.836-1.91-15.836-5.559 0-.485.385-.87.869-.87a.86.86 0 0 1 .856.87c0 1.568 5.501 3.834 14.111 3.834 7.355 0 12.857-1.71 13.926-3.364.27-.399.798-.513 1.197-.242.399.257.513.784.256 1.197-1.867 2.851-9.065 4.134-15.379 4.134zm0-11.559c-7.868 0-15.836-1.91-15.836-5.559 0-.485.385-.87.869-.87a.86.86 0 0 1 .856.87c0 1.554 5.501 3.834 14.111 3.834 7.355 0 12.857-1.71 13.926-3.364.27-.399.798-.513 1.197-.257.399.271.513.798.256 1.197-1.867 2.865-9.065 4.148-15.379 4.148z" class="B"/><path d="M326.837 77.96a1.88 1.88 0 0 1-1.881-1.881c0-1.026.841-1.867 1.881-1.867s1.882.841 1.882 1.867a1.88 1.88 0 0 1-1.882 1.881zm0-2.893c-.556 0-1.012.456-1.012 1.012 0 .57.456 1.012 1.012 1.012s1.012-.442 1.012-1.012c0-.556-.456-1.012-1.012-1.012zm0 13.74a1.89 1.89 0 0 1-1.881-1.882 1.881 1.881 0 1 1 3.763 0 1.89 1.89 0 0 1-1.882 1.882zm0-2.894c-.556 0-1.012.456-1.012 1.012s.456 1.012 1.012 1.012 1.012-.456 1.012-1.012-.456-1.012-1.012-1.012zm0 13c-1.04 0-1.881-.841-1.881-1.867a1.881 1.881 0 1 1 3.763 0c0 1.026-.841 1.867-1.882 1.867zm0-2.894a1.02 1.02 0 0 0-1.012 1.026c0 .556.456 1.012 1.012 1.012s1.012-.456 1.012-1.012a1.02 1.02 0 0 0-1.012-1.026z" class="C B"/><path d="M303.347 97.83a.43.43 0 0 1-.427-.428V72.829a.43.43 0 0 1 .427-.428c.243 0 .442.185.442.428v24.573c0 .242-.199.428-.442.428zm1.454.727c-.242 0-.442-.2-.442-.428v-8.681c0-.228.2-.428.442-.428a.43.43 0 0 1 .428.428v8.681a.43.43 0 0 1-.428.428zm3.25-26.926a.41.41 0 0 1-.285-.1l-5.431-4.889c-.171-.157-.185-.428-.028-.599.157-.185.442-.2.613-.043l5.416 4.889c.185.157.2.428.029.599-.086.1-.2.142-.314.142zm3.435.727a.46.46 0 0 1-.299-.114l-7.412-6.87c-.171-.157-.185-.428-.014-.599.156-.185.442-.185.613-.029l7.397 6.87c.186.157.186.428.029.599-.086.1-.2.142-.314.142zm19.143-3.064a.41.41 0 0 1-.299-.128l-4.704-4.704a.43.43 0 0 1 0-.613.46.46 0 0 1 .613 0l4.703 4.704a.46.46 0 0 1 0 .613.44.44 0 0 1-.313.128zm-1.81 1.083c-.114 0-.228-.057-.314-.157l-5.245-5.958c-.157-.171-.143-.456.042-.613.171-.157.457-.128.613.043l5.231 5.958a.43.43 0 0 1-.042.613.4.4 0 0 1-.285.114zm17.403 84.681a.94.94 0 0 1-.641-.256c-.641-.656-.798-2.281-.371-3.877.457-1.639 1.91-4.561 6.472-5.702 7.027-1.753 11.46 5.189 11.502 5.26a.86.86 0 0 1-.285 1.183c-.399.256-.926.128-1.183-.271-.157-.242-3.82-5.944-9.621-4.49-3.179.784-4.49 2.566-5.017 3.92-.542 1.354-.399 2.537-.243 2.779.342.343.328.87-.014 1.212-.157.157-.385.242-.599.242z" class="B"/><path d="M388.442 167.231a.77.77 0 0 1-.143-.014c-.47-.072-.784-.513-.712-.984 1.496-8.923-7.17-11.916-7.541-12.044-.156-.043-.285-.143-.384-.257-8.382-9.92-18.331-4.732-18.43-4.675a.86.86 0 0 1-.813-1.525c.1-.057 11.161-5.83 20.411 4.903 1.554.613 10.049 4.405 8.467 13.883a.87.87 0 0 1-.855.713z" class="B"/><path d="M373.704 193.543c-3.906 0-7.355-1.254-9.636-3.563-2.309-2.352-3.178-5.602-2.466-9.151.086-.47.542-.784 1.012-.684s.77.556.684 1.012c-.613 3.022.086 5.659 1.996 7.611 2.551 2.58 6.884 3.607 11.617 2.751 8.01-1.454 6.685-10.02 6.613-10.391a.86.86 0 0 1 .642-.969c.242-.071 5.773-1.582 5.046-8.823-.727-7.269-10.42-7.355-10.52-7.355a.862.862 0 1 1 0-1.725c3.92 0 11.532 1.868 12.23 8.909.713 7.07-3.806 9.664-5.616 10.419.185 2.424.086 10.149-8.082 11.631-1.197.214-2.38.328-3.52.328zm-28.437-15.565c-4.204 0-9.293-1.055-12.942-3.577-3.635-2.523-5.317-6.172-4.86-10.562.498-4.775 2.337-8.41 5.444-10.79 5.289-4.063 12.316-3.022 12.615-2.965.47.071.784.513.713.983a.86.86 0 0 1-.984.727c-.071-.014-6.614-.983-11.303 2.623-2.708 2.095-4.319 5.317-4.761 9.607-.399 3.763.984 6.785 4.12 8.951 5.444 3.777 14.524 3.792 17.375 2.366a.88.88 0 0 1 1.169.385.88.88 0 0 1-.399 1.169c-1.369.684-3.621 1.083-6.187 1.083z" class="B"/><path d="M360.761 181.57c-3.307 0-6.614-1.154-8.68-3.221-1.511-1.511-2.238-3.264-2.167-5.188.171-4.134 3.991-7.669 4.59-8.196 1.026-1.326 3.677-3.321 6.699-1.811.428.214.599.742.385 1.169s-.727.599-1.155.385c-2.58-1.297-4.518 1.254-4.604 1.368a1.65 1.65 0 0 1-.128.143c-.043.029-3.92 3.392-4.048 7.013-.057 1.454.485 2.722 1.653 3.905 2.538 2.537 7.512 3.435 11.332 2.053 1.739-.627 4.704-2.295 5.074-6.4.314-3.449 1.782-4.347 2.951-4.49 2.523-.299 5.673 2.908 6.685 5.873.67 1.952.299 3.52-1.026 4.318-.399.243-.941.1-1.183-.299a.86.86 0 0 1 .299-1.183c.727-.442.556-1.482.285-2.266-.812-2.381-3.435-4.875-4.846-4.718-1.041.114-1.354 1.881-1.44 2.922-.342 3.748-2.551 6.542-6.214 7.868-1.412.513-2.937.755-4.462.755z" class="B"/><path d="M355.131 165.606a.86.86 0 0 1-.855-.855c0-3.336-1.796-4.034-1.867-4.062a.87.87 0 0 1-.514-1.098c.157-.456.628-.684 1.069-.542.129.043 3.036 1.069 3.036 5.702a.86.86 0 0 1-.869.855zm25.186 15.437c-.356 0-.698-.228-.812-.585-.528-1.596-3.877-2.48-5.018-2.679-.47-.072-.783-.513-.712-.984.085-.47.527-.798.998-.712.555.085 5.416.983 6.371 3.82a.88.88 0 0 1-.556 1.097c-.085.029-.176.043-.271.043zm2.637-16.649a.67.67 0 0 1-.185-.028c-2.252-.499-4.932-4.932-4.932-6.115v-.812a.86.86 0 0 1 .855-.87c.485 0 .87.385.87.87v.812c.114.741 2.295 4.148 3.592 4.433.456.1.755.57.655 1.026-.099.414-.456.684-.855.684zm-12.386-3.663c-.243 0-.485-.099-.656-.299-4.362-5.089-10.092-2.338-10.334-2.224-.427.214-.941.043-1.154-.384s-.043-.955.384-1.169c.072-.029 7.17-3.478 12.415 2.651.314.371.271.912-.085 1.226-.171.128-.371.199-.57.199zm-34.124 8.937a.86.86 0 0 1-.855-.855c0-.199.043-4.746 3.906-5.716 1.411-.356 2.124-1.682 2.323-2.793.214-1.255-.171-2.423-.969-2.965-.399-.271-.513-.798-.243-1.197.257-.4.799-.499 1.198-.243 1.397.941 2.052 2.737 1.71 4.704-.356 2.11-1.739 3.706-3.606 4.162-2.566.642-2.594 4.005-2.594 4.048a.86.86 0 0 1-.87.855z" class="B"/><path d="M339.694 171.293a.82.82 0 0 1-.47-.142c-2.195-1.454-5.987-1.483-6.029-1.483a.862.862 0 1 1 0-1.724c.185 0 4.361.014 6.984 1.767a.87.87 0 0 1 .242 1.197c-.171.257-.442.385-.727.385zm-1.625-12.999a.862.862 0 1 1 0-1.725c.57 0 3.407-.698 4.063-2.665.142-.442.641-.699 1.097-.542.442.157.684.642.542 1.098-.969 2.922-4.718 3.834-5.702 3.834zm18.687 17.874c-.314 0-.613-.171-.77-.47-.214-.428-.043-.955.385-1.169l.912-.399c2.195-.927 6.286-2.666 7.583-7.184.129-.456.599-.727 1.069-.599a.88.88 0 0 1 .599 1.069c-1.525 5.317-6.286 7.327-8.567 8.296-.342.142-.612.256-.826.371-.114.057-.257.085-.385.085z" class="B"/><path d="M368.686 168.172c-3.178 0-5.915-2.68-6.043-2.823-.328-.327-.328-.869 0-1.211a.86.86 0 0 1 1.225 0c.029.028 2.951 2.893 5.688 2.209.456-.114.926.157 1.04.627.114.457-.171.927-.627 1.041-.428.114-.869.157-1.283.157zm5.417 22.321c-1.583 0-3.592-.314-5.759-1.397-5.088-2.551-4.304-8.709-4.29-8.766a.43.43 0 0 1 .484-.37c.228.028.4.242.371.484-.028.228-.713 5.616 3.82 7.882 4.632 2.31 8.552.813 8.581.799.228-.086.484.014.57.242a.44.44 0 0 1-.242.556c-.1.043-1.469.57-3.535.57zm5.815-2.167a.45.45 0 0 1-.356-.171.43.43 0 0 1 .085-.598c.129-.1 3.022-2.338 2.281-6.072-.043-.228.1-.456.342-.513.214-.043.456.114.499.342.855 4.276-2.452 6.827-2.594 6.927a.46.46 0 0 1-.257.085zm4.063-11.374c-.157 0-.314-.086-.385-.228a.43.43 0 0 1 .185-.584c.128-.057 3.007-1.568 3.007-5.303 0-3.934-5.829-5.259-8.495-5.259-.242 0-.442-.186-.442-.428s.2-.428.442-.428c3.777 0 9.365 1.939 9.365 6.115a6.84 6.84 0 0 1-3.492 6.072c-.057.029-.119.043-.185.043zm-44.686-3.25h-.1c-7.682-1.753-9.464-5.302-9.592-7.982-.257-5.274 5.673-11.332 8.737-12.358.228-.071.471.057.556.285a.44.44 0 0 1-.285.542c-2.551.855-8.395 6.5-8.139 11.488.171 3.45 3.164 5.873 8.923 7.17a.43.43 0 0 1 .313.527.41.41 0 0 1-.413.328zm31.686 13h-.071c-5.174-.87-5.245-6.671-5.245-6.728 0-.228.199-.428.441-.428a.44.44 0 0 1 .428.428c0 .214.071 5.131 4.518 5.872.228.043.385.257.357.499a.44.44 0 0 1-.428.357zm-10.163-25.971c-.313 0-.613-.171-.769-.47-.699-1.397-2.823-2.723-3.307-2.78-.456-.042-.827-.441-.813-.898.029-.47.371-.826.827-.826 1.226 0 3.934 1.924 4.832 3.734a.86.86 0 0 1-.385 1.155.89.89 0 0 1-.385.085zm8.937 1.625a.83.83 0 0 1-.47-.142c-.399-.271-.513-.799-.242-1.198.071-.114 1.81-2.694 4.504-3.592.456-.142.941.1 1.097.542.143.456-.099.955-.556 1.098-2.123.712-3.592 2.893-3.606 2.907-.171.257-.442.385-.727.385zm7.726-8.153c-.186 0-.357-.114-.414-.285-.014-.014-.869-2.266-6.214-3.791-3.863-1.098-6.186-.257-7.426.199-.656.228-1.098.385-1.469.171-.213-.128-.27-.399-.156-.599.128-.199.37-.256.57-.156a10.65 10.65 0 0 0 .755-.228c1.34-.485 3.835-1.397 7.968-.214 5.844 1.667 6.756 4.233 6.785 4.347.085.214-.043.471-.271.542-.047.009-.09.014-.128.014zm8.937 11.375h-.071c-.243-.043-.399-.257-.357-.499.756-4.576-3.064-7.683-3.093-7.712-.185-.156-.214-.427-.071-.612s.428-.214.613-.072c.171.143 4.247 3.478 3.406 8.538a.44.44 0 0 1-.427.357z" class="B"/><path d="M381.942 152.607a.86.86 0 0 1-.598-.243c-.3-.299-.343-.769-.115-1.111l4.747-6.771h-3.221a.85.85 0 0 1-.77-.485c-.143-.285-.114-.641.085-.898l8.125-10.562c.242-.313.67-.427 1.041-.27l7.312 3.249c.285.129.484.414.499.727.028.314-.114.613-.371.784l-4.946 3.293h2.836c.371 0 .713.242.827.599a.88.88 0 0 1-.313.969l-14.625 10.562a.94.94 0 0 1-.513.157zm2.566-9.85h3.121a.88.88 0 0 1 .77.471c.143.285.128.627-.057.883l-2.751 3.935 8.31-6.001h-3.022c-.385 0-.712-.243-.826-.613-.115-.357.028-.756.342-.969l6.015-4.006-5.26-2.323-6.642 8.623zM362.4 129.003c-1.439 0-3.05-.2-4.832-.528-3.677-.67-6.214-2.195-7.768-4.689-2.68-4.248-2.494-11.389.57-22.436.072-.228.143-.527.228-.869 1.055-4.305 4.262-17.375 17.034-14.639 3.449.741 5.986 2.423 7.554 5.003 3.948 6.514.969 17.247-1.425 25.871-2.623 9.464-5.901 12.287-11.361 12.287zm-10.362-27.197c-2.879 10.406-3.136 17.304-.784 21.067 1.311 2.081 3.407 3.322 6.628 3.906 8.068 1.468 11.26.157 14.211-10.519 2.181-7.868 5.174-18.644 1.611-24.517-1.326-2.181-3.421-3.563-6.429-4.205-9.992-2.152-13.341 6.585-15.009 13.356-.085.371-.157.67-.228.912z" class="C B"/><path d="M349.273 117.457a.9.9 0 0 1-.713-.356c-.271-.385-.185-.927.2-1.212.042-.028 4.062-2.965 5.616-8.581.498-1.767-1.283-7.483-2.523-10.676-.171-.442.057-.941.499-1.112a.85.85 0 0 1 1.111.499c.357.898 3.378 8.852 2.58 11.746-1.724 6.228-6.086 9.407-6.271 9.535-.157.114-.328.157-.499.157zm22.82 2.894c-.285 0-.57-.143-.727-.4-.128-.213-3.164-5.145-2.551-9.336.983-6.613 5.815-8.751 6.015-8.837a.87.87 0 0 1 1.14.456.86.86 0 0 1-.456 1.126c-.171.071-4.162 1.882-4.989 7.512-.513 3.563 2.281 8.124 2.309 8.167a.86.86 0 0 1-.285 1.183.88.88 0 0 1-.456.129z" class="B"/><path d="M369.755 108.392c-.047 0-.095-.005-.142-.015l-14.111-2.294c-.471-.072-.784-.514-.713-.984.085-.47.513-.798.998-.713l14.111 2.295c.47.072.784.513.713.984a.87.87 0 0 1-.856.727zm-4.789-11.831a1.04 1.04 0 0 1-.171-.014c-.456-.085-.77-.542-.684-1.012l1.639-8.837c.086-.47.542-.77 1.012-.684s.77.527.684.998l-1.639 8.837a.87.87 0 0 1-.841.713z" class="B"/><path d="M363.797 107.109a3.31 3.31 0 0 1-.527-.043c-.912-.157-1.654-.627-2.152-1.325a3.2 3.2 0 0 1-.542-2.409l.955-5.374a3.2 3.2 0 0 1 3.635-2.608c.912.142 1.667.599 2.18 1.311.514.698.699 1.568.556 2.423l-.955 5.374a3.23 3.23 0 0 1-3.15 2.651zm.884-10.063c-.713 0-1.326.499-1.454 1.212l-.941 5.374c-.071.399.015.784.243 1.112a1.41 1.41 0 0 0 .969.598c.855.143 1.611-.399 1.739-1.183l.955-5.373c.071-.399-.014-.798-.242-1.126a1.51 1.51 0 0 0-.984-.584l-.057-.014c-.076-.01-.152-.014-.228-.014z" class="B C"/><path d="M365.408 86.184a.84.84 0 0 1-.741-.442c-.2-.328-.143-.741.114-1.012.042-.2.085-.698.128-1.098.257-2.893.841-9.678 9.493-11.959 6.186-1.625 9.55 1.212 13.113 4.219 2.823 2.366 5.73 4.818 10.391 5.431 4.747.613 9.08-.998 11.902-4.404 2.096-2.537 3.008-5.787 2.252-8.068a.88.88 0 0 1 .556-1.097c.442-.142.941.1 1.083.556.955 2.865-.057 6.685-2.565 9.721-3.207 3.863-8.111 5.687-13.441 5.003-5.175-.67-8.424-3.407-11.289-5.815-3.35-2.822-6.258-5.274-11.56-3.863-7.469 1.967-7.954 7.469-8.225 10.434-.099 1.197-.171 1.924-.783 2.281-.129.071-.271.114-.428.114zm-3.649 40.381c-2.423 0-5.374-.741-8.267-3.349-6.6-5.958-.556-22.45-.3-23.148a.44.44 0 0 1 .556-.243c.228.071.342.328.257.542-.057.171-6.101 16.648.071 22.207 6.158 5.559 12.6 2.024 12.658 1.981.213-.114.47-.042.598.171a.43.43 0 0 1-.171.585c-.028.028-2.266 1.254-5.402 1.254zm-2.523-2.523c-.038 0-.076-.009-.114-.028-5.473-1.511-6.001-5.801-6.029-5.987a.43.43 0 0 1 .385-.47c.228-.029.456.142.484.37.014.157.499 3.906 5.388 5.26.242.071.371.299.314.527a.44.44 0 0 1-.428.328z" class="B"/><defs ><path id="B" d="M149.707 194.513c0-5.303 1.91-8.154 5.074-8.154s5.074 2.851 5.074 8.154-1.91 8.267-5.074 8.267-5.074-2.965-5.074-8.267zm8.167 0c0-4.647-1.254-6.514-3.093-6.514s-3.093 1.867-3.093 6.514 1.254 6.628 3.093 6.628 3.093-1.982 3.093-6.628z"/><path id="C" d="M294.253 225.913c-2.622 0-4.746-2.123-4.746-4.746s2.124-4.746 4.746-4.746 4.747 2.123 4.747 4.746-2.124 4.746-4.747 4.746zm0-7.768c-1.667 0-3.021 1.354-3.021 3.022s1.354 3.022 3.021 3.022 3.022-1.354 3.022-3.022-1.354-3.022-3.022-3.022z"/><path id="D" d="M453.182 280.804a.42.42 0 0 1-.427-.427v-20.739a.42.42 0 1 1 .855 0v20.739a.42.42 0 0 1-.428.427z"/></defs></svg>
