<svg xmlns="http://www.w3.org/2000/svg" xml:space="preserve" width="2048" height="2048" style="shape-rendering:geometricPrecision;text-rendering:geometricPrecision;image-rendering:optimizeQuality;fill-rule:evenodd;clip-rule:evenodd"><defs><style>.fil1{fill:none}.fil2{fill:#5d4037}.fil3{fill:#212121;fill-rule:nonzero}</style></defs><g id="Layer_x0020_1"><path d="M1024 255.999c424.155 0 768.001 343.845 768.001 768.001 0 424.155-343.845 768.001-768.001 768.001-424.155 0-768.001-343.845-768.001-768.001 0-424.155 343.845-768.001 768.001-768.001z" style="fill:#ffd54f"/><path class="fil1" d="M0 0h2048v2048H0z"/><path class="fil1" d="M255.999 255.999h1536v1536h-1536z"/><path class="fil2" d="M1261.12 691.778c44.184 0 80 35.817 80 80 0 44.185-35.816 80.002-80 80.002s-80-35.817-80-80.001c0-44.184 35.816-80.001 80-80.001zM786.884 691.778c44.184 0 80 35.817 80 80 0 44.185-35.816 80.002-80 80.002s-80-35.817-80-80.001c0-44.184 35.816-80.001 80-80.001zM656 1280h736v64H656z"/><path class="fil3" d="M1291.97 582.998c55.501 0 105.751 22.5 142.126 58.874 36.374 36.376 58.874 86.626 58.874 142.128 0 55.498-22.5 105.75-58.874 142.126C1397.722 962.5 1347.472 985 1291.97 985c-55.501 0-105.751-22.5-142.127-58.874-36.374-36.375-58.874-86.625-58.874-142.126 0-55.5 22.5-105.752 58.874-142.127 36.376-36.375 86.626-58.875 142.127-58.875zm106.775 94.225c-27.322-27.323-65.075-44.224-106.775-44.224s-79.453 16.902-106.776 44.224c-27.323 27.322-44.224 65.075-44.224 106.776 0 41.7 16.902 79.453 44.224 106.775 27.324 27.322 65.076 44.224 106.776 44.224s79.453-16.902 106.775-44.224c27.323-27.323 44.224-65.075 44.224-106.775s-16.902-79.453-44.224-106.776zM775.162 582.998c55.501 0 105.751 22.5 142.126 58.874 36.374 36.376 58.874 86.626 58.874 142.128 0 55.498-22.5 105.75-58.874 142.126C880.914 962.5 830.661 985 775.162 985c-55.501 0-105.751-22.5-142.127-58.874C596.661 889.75 574.161 839.5 574.161 784c0-55.5 22.5-105.752 58.874-142.127 36.374-36.375 86.627-58.875 142.127-58.875zm106.775 94.225c-27.323-27.323-65.075-44.224-106.775-44.224-41.701 0-79.454 16.902-106.776 44.224-27.322 27.322-44.224 65.075-44.224 106.776 0 41.7 16.902 79.453 44.224 106.775 27.324 27.322 65.076 44.224 106.776 44.224s79.453-16.902 106.775-44.224c27.323-27.323 44.224-65.075 44.224-106.775s-16.902-79.453-44.224-106.776z"/><path class="fil3" d="M943.683 708.08h181.287v50.001H943.683zM1437.17 686.043l216.96-101.154 26.68 40.962-222.54 105.307zM597.453 731.158 368.152 624.176l27.671-42.124 222.724 103.991z"/></g></svg>
